# This file uses centimeters as units for non-parametric coordinates.

mtllib 04.mtl
g default
v 2.760738 -22.475671 -2.760845
v 0.000003 -22.475671 -3.904339
v -2.760731 -22.475671 -2.760845
v -3.904255 -22.475671 -0.000103
v -2.760731 -22.475671 2.760639
v 0.000003 -22.475671 3.904194
v 2.760738 -22.475671 2.760639
v 3.904270 -22.475671 -0.000103
v 5.101169 -20.264082 -5.101238
v 0.000003 -20.264082 -7.214214
v -5.101162 -20.264082 -5.101238
v -7.214131 -20.264082 -0.000103
v -5.101162 -20.264082 5.101093
v 0.000003 -20.264082 7.214069
v 5.101169 -20.264082 5.101093
v 7.214138 -20.264082 -0.000103
v 6.664997 -16.954209 -6.665020
v 0.000003 -16.954209 -9.425762
v -6.664990 -16.954209 -6.665020
v -9.425717 -16.954209 -0.000103
v -6.664990 -16.954209 6.664936
v 0.000003 -16.954209 9.425678
v 6.664997 -16.954209 6.664936
v 9.425731 -16.954209 -0.000103
v 7.214138 -13.049945 -7.214214
v 0.000003 -13.049945 -10.202374
v -7.214131 -13.049945 -7.214214
v -10.202328 -13.049945 -0.000103
v -7.214131 -13.049945 7.214069
v 0.000003 -13.049945 10.202289
v 7.214138 -13.049945 7.214069
v 10.202335 -13.049945 -0.000103
v 4.761119 3.091409 -4.761211
v 0.000003 3.091409 -6.733318
v -4.761113 3.091409 -4.761211
v -6.733227 3.091409 -0.000103
v -4.761113 3.091409 4.761005
v 0.000003 3.091409 6.733173
v 4.761119 3.091409 4.761005
v 6.733234 3.091409 -0.000103
v 3.644001 5.455819 -3.644085
v 0.000003 5.455819 -5.153423
v -3.643994 5.455819 -3.644085
v -5.153393 5.455819 -0.000103
v -3.643994 5.455819 3.643940
v 0.000003 5.455819 5.153339
v 3.644001 5.455819 3.643940
v 5.153400 5.455819 -0.000103
v 1.972126 7.035642 -1.972210
v 0.000003 7.035642 -2.789044
v -1.972119 7.035642 -1.972210
v -2.788990 7.035642 -0.000103
v -1.972119 7.035642 1.972065
v 0.000003 7.035642 2.788959
v 1.972126 7.035642 1.972065
v 2.789005 7.035642 -0.000103
v 0.000003 -23.252273 -0.000103
v 0.000003 7.590429 -0.000103
v -3.954602 22.139825 -3.954571
v 0.000003 22.139825 -5.592632
v 3.954609 22.139825 -3.954571
v 5.592662 22.139825 -0.000042
v 3.954609 22.139825 3.954670
v 0.000003 22.139825 5.592670
v -3.954602 22.139825 3.954670
v -5.592656 22.139825 -0.000042
v -7.307156 18.971837 -7.307110
v 0.000003 18.971837 -10.333843
v 7.307163 18.971837 -7.307110
v 10.333889 18.971837 -0.000042
v 7.307163 18.971837 7.307148
v 0.000003 18.971837 10.333942
v -7.307156 18.971837 7.307148
v -10.333882 18.971837 -0.000042
v -9.547261 14.230615 -9.547222
v 0.000003 14.230615 -13.501812
v 9.547268 14.230615 -9.547222
v 13.501873 14.230615 -0.000042
v 9.547268 14.230615 9.547260
v 0.000003 14.230615 13.501972
v -9.547261 14.230615 9.547260
v -13.501866 14.230615 -0.000042
v -8.421605 8.940217 -8.421612
v 0.000003 8.940217 -11.909893
v 8.421611 8.940217 -8.421612
v 11.909954 8.940217 -0.000042
v 8.421611 8.940217 8.421650
v 0.000003 8.940217 11.909992
v -8.421605 8.940217 8.421650
v -11.909947 8.940217 -0.000042
v -6.335453 5.288881 -6.335430
v 0.000003 5.288881 -8.959698
v 6.335460 5.288881 -6.335430
v 8.959697 5.288881 -0.000042
v 6.335460 5.288881 6.335468
v 0.000003 5.288881 8.959736
v -6.335453 5.288881 6.335468
v -8.959690 5.288881 -0.000042
v -3.428723 2.542177 -3.428692
v 0.000003 2.542177 -4.848919
v 3.428730 2.542177 -3.428692
v 4.848949 2.542177 -0.000042
v 3.428730 2.542177 3.428730
v 0.000003 2.542177 4.848896
v -3.428723 2.542177 3.428730
v -4.848950 2.542177 -0.000042
v 0.000003 23.252275 -0.000042
v 0.000003 1.577646 -0.000042
v -11.239292 9.329492 -11.239300
v -11.230145 8.796197 -11.230145
v -10.913777 8.459028 -10.913799
v 0.000003 9.329492 -15.894756
v 0.000003 8.796205 -15.881756
v 0.000003 8.459028 -15.434307
v 11.239299 9.329492 -11.239300
v 11.230152 8.796197 -11.230145
v 10.913784 8.459028 -10.913799
v 15.894764 9.329492 -0.000042
v 15.881824 8.796197 -0.000042
v 15.434421 8.459028 -0.000042
v 11.239299 9.329492 11.239277
v 11.230152 8.796197 11.230122
v 10.913784 8.459028 10.913776
v 0.000003 9.329492 15.894733
v 0.000003 8.796205 15.881855
v 0.000003 8.459028 15.434345
v -11.239292 9.329492 11.239277
v -11.230145 8.796197 11.230122
v -10.913784 8.459028 10.913776
v -15.894757 9.329492 -0.000042
v -15.881817 8.796197 -0.000042
v -15.434414 8.459028 -0.000042
vt 0.376991 0.386884
vt 0.425901 0.396266
vt 0.419604 0.420595
vt 0.373185 0.411633
vt 0.706419 0.464855
vt 0.702558 0.428878
vt 0.473493 0.411282
vt 0.464529 0.434792
vt 0.472935 0.677941
vt 0.512421 0.678219
vt 0.683559 0.458393
vt 0.681854 0.440575
vt 0.674391 0.406266
vt 0.445370 0.649745
vt 0.479542 0.661482
vt 0.505378 0.661951
vt 0.668069 0.429210
vt 0.461703 0.642834
vt 0.486182 0.645865
vt 0.498944 0.646263
vt 0.477471 0.636547
vt 0.561748 0.457499
vt 0.600440 0.487361
vt 0.586127 0.507728
vt 0.548028 0.478576
vt 0.616142 0.438535
vt 0.620672 0.474220
vt 0.639930 0.520303
vt 0.622675 0.541599
vt 0.514766 0.585167
vt 0.474711 0.582971
vt 0.639073 0.444747
vt 0.640916 0.462427
vt 0.647578 0.496524
vt 0.539197 0.609790
vt 0.506949 0.600728
vt 0.481235 0.599369
vt 0.654477 0.473741
vt 0.523939 0.618070
vt 0.499939 0.615872
vt 0.487283 0.615205
vt 0.508550 0.624884
vt 0.577352 0.777258
vt 0.523902 0.829943
vt 0.492064 0.817555
vt 0.563601 0.745985
vt 0.590736 0.808008
vt 0.555110 0.842222
vt 0.523360 0.904989
vt 0.492087 0.918740
vt 0.562318 0.742875
vt 0.488957 0.816263
vt 0.602982 0.838130
vt 0.585069 0.854861
vt 0.554111 0.891604
vt 0.488977 0.920024
vt 0.994039 0.484362
vt 0.486243 0.815149
vt 0.584233 0.879358
vt 0.865789 0.537472
vt 0.651082 0.958984
vt 0.704536 0.906307
vt 0.736370 0.918703
vt 0.664828 0.990259
vt 0.637702 0.928231
vt 0.673330 0.894022
vt 0.705085 0.831259
vt 0.736360 0.817513
vt 0.666111 0.993370
vt 0.739477 0.919996
vt 0.625459 0.898107
vt 0.643373 0.881377
vt 0.674334 0.844639
vt 0.739471 0.816230
vt 0.812680 0.409223
vt 0.742190 0.921111
vt 0.644210 0.856880
vt 0.940929 0.356113
vt 0.672174 0.472182
vt 0.661342 0.451505
vt 0.683597 0.493059
vt 0.695944 0.514519
vt 0.650324 0.430952
vt 0.638531 0.410276
vt 0.519027 0.431801
vt 0.508217 0.637517
vt 0.493030 0.630784
vt 0.523928 0.643878
vt 0.540513 0.650157
vt 0.477937 0.623816
vt 0.462386 0.617034
vt 0.446001 0.610291
vt 0.627480 0.838967
vt 0.614222 0.868118
vt 0.640121 0.809010
vt 0.652403 0.777803
vt 0.600963 0.897270
vt 0.588321 0.927229
vt 0.576039 0.958437
vt 0.936482 0.826704
vt 0.920269 0.842274
vt 0.909582 0.814918
vt 0.964220 0.838094
vt 0.931829 0.869941
vt 0.897796 0.841819
vt 0.936937 0.804231
vt 0.932290 0.376983
vt 0.973180 0.417887
vt 0.886407 0.869557
vt 0.964604 0.792671
vt 0.882226 0.825606
vt 0.921367 0.788017
vt 0.994044 0.409239
vt 0.973169 0.475724
vt 0.874454 0.376972
vt 0.854560 0.837167
vt 0.932757 0.760280
vt 0.882681 0.803132
vt 0.898894 0.787563
vt 0.666088 0.742861
vt 0.865805 0.356107
vt 0.932265 0.516614
vt 0.833549 0.417861
vt 0.854943 0.791744
vt 0.887333 0.759896
vt 0.940913 0.537478
vt 0.874427 0.516603
vt 0.833538 0.475698
vt 0.812674 0.484347
vt 0.562355 0.993380
vt 0.280502 0.382111
vt 0.327768 0.382956
vt 0.325614 0.407719
vt 0.276743 0.407940
vt 0.326043 0.513975
vt 0.292529 0.515596
vt 0.507490 0.454163
vt 0.664796 0.745968
vt 0.563647 0.990273
vt 0.667242 0.996077
vt 0.561240 0.996094
vt 0.486270 0.921155
vt 0.561187 0.740168
vt 0.667202 0.740147
vt 0.742178 0.815099
vt 0.991872 0.780833
vt 0.991872 0.849004
vt 0.943667 0.732628
vt 0.875494 0.732628
vt 0.827290 0.780835
vt 0.827293 0.849007
vt 0.875498 0.897209
vt 0.943668 0.897208
vt 0.359994 0.516644
vt 0.393686 0.523207
vt 0.730444 0.471075
vt 0.625769 0.388969
vt 0.680498 0.382188
vt 0.723922 0.416214
vt 0.487658 0.564705
vt 0.458034 0.547416
vt 0.426541 0.533516
vt 0.592023 0.432663
vn 0.350882 -0.868195 -0.350883
vn 0.000000 -0.868195 -0.496223
vn -0.000000 -0.654261 -0.756269
vn 0.534761 -0.654262 -0.534763
vn -0.350883 -0.868195 -0.350883
vn -0.534761 -0.654262 -0.534763
vn -0.496219 -0.868198 0.000000
vn -0.756266 -0.654265 -0.000000
vn -0.350881 -0.868197 0.350879
vn -0.534758 -0.654269 0.534758
vn 0.000000 -0.868197 0.496220
vn 0.000000 -0.654268 0.756263
vn 0.350880 -0.868197 0.350879
vn 0.534758 -0.654268 0.534759
vn 0.496218 -0.868198 0.000000
vn 0.756265 -0.654265 0.000000
vn -0.000000 -0.349894 -0.936790
vn 0.662409 -0.349894 -0.662411
vn -0.662409 -0.349894 -0.662411
vn -0.936789 -0.349894 0.000000
vn -0.662411 -0.349894 0.662409
vn -0.000000 -0.349895 0.936789
vn 0.662411 -0.349894 0.662409
vn 0.936789 -0.349894 0.000000
vn 0.000000 0.123089 -0.992396
vn 0.701727 0.123091 -0.701732
vn -0.701727 0.123091 -0.701732
vn -0.992395 0.123093 0.000000
vn -0.701732 0.123093 0.701727
vn -0.000000 0.123094 0.992395
vn 0.701732 0.123093 0.701727
vn 0.992395 0.123093 0.000000
vn -0.000000 0.242736 -0.970093
vn 0.685956 0.242737 -0.685961
vn -0.685957 0.242736 -0.685961
vn -0.970092 0.242737 0.000000
vn -0.685962 0.242737 0.685955
vn -0.000000 0.242738 0.970092
vn 0.685962 0.242737 0.685955
vn 0.970092 0.242737 -0.000000
vn -0.000000 0.654268 -0.756263
vn 0.534755 0.654268 -0.534762
vn -0.534755 0.654268 -0.534762
vn -0.756264 0.654266 -0.000000
vn -0.534763 0.654262 0.534761
vn 0.000000 0.654262 0.756268
vn 0.534763 0.654262 0.534761
vn 0.756264 0.654266 0.000000
vn -0.000000 0.868197 -0.496220
vn 0.350877 0.868198 -0.350882
vn -0.350876 0.868198 -0.350882
vn -0.496215 0.868200 -0.000001
vn -0.350884 0.868198 0.350874
vn 0.000000 0.868199 0.496216
vn 0.350883 0.868198 0.350875
vn 0.496215 0.868200 -0.000000
vn 0.000000 -1.000000 -0.000000
vn 0.000000 1.000000 -0.000001
vn -0.350880 0.868196 -0.350884
vn 0.000000 0.868195 -0.496222
vn -0.000000 0.654265 -0.756266
vn -0.534758 0.654265 -0.534762
vn 0.350880 0.868196 -0.350884
vn 0.534758 0.654265 -0.534763
vn 0.496220 0.868197 -0.000001
vn 0.756265 0.654266 -0.000000
vn 0.350879 0.868197 0.350881
vn 0.534763 0.654266 0.534756
vn -0.000000 0.868197 0.496220
vn -0.000000 0.654267 0.756263
vn -0.350879 0.868197 0.350881
vn -0.534763 0.654266 0.534756
vn -0.496220 0.868197 -0.000001
vn -0.756264 0.654266 0.000000
vn -0.000000 0.486297 -0.873793
vn -0.617864 0.486296 -0.617867
vn 0.617864 0.486296 -0.617867
vn 0.873796 0.486293 -0.000000
vn 0.617871 0.486290 0.617865
vn -0.000000 0.486290 0.873798
vn -0.617871 0.486290 0.617865
vn -0.873796 0.486293 -0.000000
vn -0.189791 -0.963306 -0.189792
vn -0.000000 -0.963305 -0.268410
vn 0.000000 -0.701223 -0.712942
vn -0.504124 -0.701223 -0.504127
vn 0.189791 -0.963306 -0.189792
vn 0.504124 -0.701224 -0.504127
vn 0.268406 -0.963306 0.000000
vn 0.712941 -0.701224 -0.000000
vn 0.189792 -0.963306 0.189792
vn 0.504125 -0.701226 0.504122
vn -0.000000 -0.963305 0.268410
vn -0.000000 -0.701226 0.712939
vn -0.189792 -0.963306 0.189792
vn -0.504126 -0.701226 0.504123
vn -0.268406 -0.963306 0.000000
vn -0.712942 -0.701223 -0.000000
vn 0.000000 -0.868197 -0.496219
vn -0.350878 -0.868197 -0.350883
vn 0.350878 -0.868197 -0.350882
vn 0.496221 -0.868196 -0.000001
vn 0.350882 -0.868198 0.350878
vn -0.000000 -0.868199 0.496216
vn -0.350882 -0.868197 0.350878
vn -0.496221 -0.868196 -0.000001
vn 0.000000 1.000000 -0.000001
vn -0.000000 -1.000000 -0.000001
vn 0.000000 0.394158 -0.919043
vn -0.649859 0.394157 -0.649864
vn 0.649859 0.394157 -0.649864
vn 0.919044 0.394154 0.000000
vn 0.649866 0.394152 0.649861
vn -0.000000 0.394150 0.919046
vn -0.649866 0.394152 0.649861
vn -0.919044 0.394155 0.000000
vn -0.021738 -0.999527 -0.021739
vn 0.000000 -0.999527 -0.030742
vn 0.021738 -0.999527 -0.021740
vn 0.030742 -0.999527 0.000000
vn 0.021738 -0.999527 0.021740
vn 0.000000 -0.999527 0.030744
vn -0.021737 -0.999527 0.021740
vn -0.030741 -0.999527 -0.000000
vn -0.643194 -0.415463 -0.643189
vn -0.909623 -0.415436 0.000000
vn 0.000001 -0.415477 -0.909604
vn 0.643195 -0.415460 -0.643190
vn 0.909621 -0.415440 0.000001
vn 0.643202 -0.415444 0.643193
vn -0.000000 -0.415449 0.909616
vn -0.643202 -0.415441 0.643195
s 1
g pSphere3 group1
usemtl initialShadingGroup
f 1/38/1 2/79/2 10/81/3 9/34/4
f 2/79/2 3/11/5 11/5/6 10/81/3
f 3/11/5 4/12/7 12/6/8 11/5/6
f 4/12/7 5/17/9 13/13/10 12/6/8
f 5/17/9 6/83/11 14/84/12 13/13/10
f 6/83/11 7/32/13 15/26/14 14/84/12
f 7/32/13 8/33/15 16/27/16 15/26/14
f 8/33/15 1/38/1 9/34/4 16/27/16
f 9/34/4 10/81/3 18/82/17 17/28/18
f 10/81/3 11/5/6 19/156/19 18/82/17
f 11/5/6 12/6/8 20/159/20 19/156/19
f 12/6/8 13/13/10 21/158/21 20/159/20
f 13/13/10 14/84/12 22/157/22 21/158/21
f 14/84/12 15/26/14 23/163/23 22/157/22
f 15/26/14 16/27/16 24/23/24 23/163/23
f 16/27/16 9/34/4 17/28/18 24/23/24
f 17/131/18 18/132/17 26/133/25 25/134/26
f 18/132/17 19/1/19 27/4/27 26/133/25
f 19/1/19 20/2/20 28/3/28 27/4/27
f 20/2/20 21/7/21 29/8/29 28/3/28
f 21/7/21 22/85/22 30/137/30 29/8/29
f 22/85/22 23/22/23 31/25/31 30/137/30
f 23/22/23 24/23/24 32/24/32 31/25/31
f 24/23/24 17/28/18 25/29/26 32/24/32
f 25/134/26 26/133/25 34/135/33 33/136/34
f 26/133/25 27/4/27 35/154/35 34/135/33
f 27/4/27 28/3/28 36/155/36 35/154/35
f 28/3/28 29/8/29 37/162/37 36/155/36
f 29/8/29 30/137/30 38/161/38 37/162/37
f 30/137/30 31/25/31 39/160/39 38/161/38
f 31/25/31 32/24/32 40/30/40 39/160/39
f 32/24/32 25/29/26 33/35/34 40/30/40
f 33/35/34 34/89/33 42/88/41 41/39/42
f 34/89/33 35/10/35 43/16/43 42/88/41
f 35/10/35 36/9/36 44/15/44 43/16/43
f 36/9/36 37/14/37 45/18/45 44/15/44
f 37/14/37 38/92/38 46/91/46 45/18/45
f 38/92/38 39/31/39 47/37/47 46/91/46
f 39/31/39 40/30/40 48/36/48 47/37/47
f 40/30/40 33/35/34 41/39/42 48/36/48
f 41/39/42 42/88/41 50/86/49 49/42/50
f 42/88/41 43/16/43 51/20/51 50/86/49
f 43/16/43 44/15/44 52/19/52 51/20/51
f 44/15/44 45/18/45 53/21/53 52/19/52
f 45/18/45 46/91/46 54/90/54 53/21/53
f 46/91/46 47/37/47 55/41/55 54/90/54
f 47/37/47 48/36/48 56/40/56 55/41/55
f 48/36/48 41/39/42 49/42/50 56/40/56
f 2/79/2 1/38/1 57/80/57
f 3/11/5 2/79/2 57/80/57
f 4/12/7 3/11/5 57/80/57
f 5/17/9 4/12/7 57/80/57
f 6/83/11 5/17/9 57/80/57
f 7/32/13 6/83/11 57/80/57
f 8/33/15 7/32/13 57/80/57
f 1/38/1 8/33/15 57/80/57
f 49/42/50 50/86/49 58/87/58
f 50/86/49 51/20/51 58/87/58
f 51/20/51 52/19/52 58/87/58
f 52/19/52 53/21/53 58/87/58
f 53/21/53 54/90/54 58/87/58
f 54/90/54 55/41/55 58/87/58
f 55/41/55 56/40/56 58/87/58
f 56/40/56 49/42/50 58/87/58
s 2
f 59/77/59 60/93/60 68/95/61 67/73/62
f 60/93/60 61/53/63 69/47/64 68/95/61
f 61/53/63 62/54/65 70/48/66 69/47/64
f 62/54/65 63/59/67 71/55/68 70/48/66
f 63/59/67 64/97/69 72/98/70 71/55/68
f 64/97/69 65/71/71 73/65/72 72/98/70
f 65/71/71 66/72/73 74/66/74 73/65/72
f 66/72/73 59/77/59 67/73/62 74/66/74
f 67/73/62 68/95/61 76/96/75 75/67/76
f 68/95/61 69/47/64 77/43/77 76/96/75
f 69/47/64 70/48/66 78/44/78 77/43/77
f 70/48/66 71/55/68 79/49/79 78/44/78
f 71/55/68 72/98/70 80/99/80 79/49/79
f 72/98/70 73/65/72 81/61/81 80/99/80
f 73/65/72 74/66/74 82/62/82 81/61/81
f 74/66/74 67/73/62 75/67/76 82/62/82
f 83/147/83 84/153/84 92/104/85 91/103/86
f 84/153/84 85/152/87 93/109/88 92/104/85
f 85/152/87 86/151/89 94/116/90 93/109/88
f 86/151/89 87/150/91 95/124/92 94/116/90
f 87/150/91 88/149/93 96/125/94 95/124/92
f 88/149/93 89/148/95 97/117/96 96/125/94
f 89/148/95 90/146/97 98/110/98 97/117/96
f 90/146/97 83/147/83 91/103/86 98/110/98
f 91/103/86 92/104/85 100/101/99 99/100/100
f 92/104/85 93/109/88 101/105/101 100/101/99
f 93/109/88 94/116/90 102/111/102 101/105/101
f 94/116/90 95/124/92 103/118/103 102/111/102
f 95/124/92 96/125/94 104/119/104 103/118/103
f 96/125/94 97/117/96 105/112/105 104/119/104
f 97/117/96 98/110/98 106/106/106 105/112/105
f 98/110/98 91/103/86 99/100/100 106/106/106
f 60/93/60 59/77/59 107/94/107
f 61/53/63 60/93/60 107/94/107
f 62/54/65 61/53/63 107/94/107
f 63/59/67 62/54/65 107/94/107
f 64/97/69 63/59/67 107/94/107
f 65/71/71 64/97/69 107/94/107
f 66/72/73 65/71/71 107/94/107
f 59/77/59 66/72/73 107/94/107
f 99/100/100 100/101/99 108/102/108
f 100/101/99 101/105/101 108/102/108
f 101/105/101 102/111/102 108/102/108
f 102/111/102 103/118/103 108/102/108
f 103/118/103 104/119/104 108/102/108
f 104/119/104 105/112/105 108/102/108
f 105/112/105 106/106/106 108/102/108
f 106/106/106 99/100/100 108/102/108
f 75/67/76 76/96/75 112/138/109 109/68/110
f 76/96/75 77/43/77 115/46/111 112/138/109
f 77/43/77 78/44/78 118/45/112 115/46/111
f 78/44/78 79/49/79 121/50/113 118/45/112
f 79/49/79 80/99/80 124/139/114 121/50/113
f 80/99/80 81/61/81 127/64/115 124/139/114
f 81/61/81 82/62/82 130/63/116 127/64/115
f 82/62/82 75/67/76 109/68/110 130/63/116
f 111/78/117 114/113/118 84/108/84 83/107/83
f 114/113/118 117/57/119 85/114/87 84/108/84
f 117/57/119 120/126/120 86/122/89 85/114/87
f 120/126/120 123/60/121 87/127/91 86/122/89
f 123/60/121 126/129/122 88/128/93 87/127/91
f 126/129/122 129/75/123 89/123/95 88/128/93
f 129/75/123 132/121/124 90/115/97 89/123/95
f 132/121/124 111/78/117 83/107/83 90/115/97
f 109/68/110 110/74/125 131/70/126 130/63/116
f 110/74/125 111/145/117 132/76/124 131/70/126
f 111/145/117 110/74/125 113/120/127 114/144/118
f 110/74/125 109/68/110 112/138/109 113/120/127
f 114/144/118 113/120/127 116/51/128 117/143/119
f 113/120/127 112/138/109 115/46/111 116/51/128
f 117/143/119 116/51/128 119/52/129 120/58/120
f 116/51/128 115/46/111 118/45/112 119/52/129
f 120/58/120 119/52/129 122/56/130 123/142/121
f 119/52/129 118/45/112 121/50/113 122/56/130
f 123/142/121 122/56/130 125/130/131 126/141/122
f 122/56/130 121/50/113 124/139/114 125/130/131
f 126/141/122 125/130/131 128/69/132 129/140/123
f 125/130/131 124/139/114 127/64/115 128/69/132
f 129/140/123 128/69/132 131/70/126 132/76/124
f 128/69/132 127/64/115 130/63/116 131/70/126
