# This file uses centimeters as units for non-parametric coordinates.

mtllib 05.mtl
g default
v -8.649475 5.721391 -8.629315
v -5.809052 -2.350977 -12.348858
v -2.886902 -10.618174 -8.840557
v -1.651382 -14.102999 0.000019
v -2.886902 -10.618174 8.840595
v -5.809052 -2.350977 12.348835
v -8.649475 5.721391 8.629352
v -9.803528 9.012464 0.000019
v -16.409302 0.248117 -5.775860
v -16.409302 -5.527751 -8.168316
v -16.409302 -11.303614 -5.775860
v -16.409302 -13.696057 0.000019
v -16.409302 -11.303614 5.775959
v -16.409302 -5.527751 8.168354
v -16.409302 0.248117 5.775959
v -16.409302 2.640558 0.000019
v -27.337723 -0.485774 0.000019
v -0.277451 8.972448 -8.149334
v 2.210648 1.224626 -11.547588
v 4.711487 -6.553593 -8.182293
v 5.751297 -9.784871 0.000019
v 4.711487 -6.553595 8.182331
v 2.210648 1.224626 11.547565
v -0.277451 8.972448 8.149372
v -1.304550 12.173498 0.000019
v 6.181137 6.741834 -3.888287
v 7.527100 3.093915 -5.498882
v 7.527100 3.093915 0.000019
v 8.873047 -0.553999 -3.888287
v 9.430573 -2.065013 0.000019
v 8.873047 -0.554003 3.888325
v 7.527100 3.093915 5.498981
v 6.181137 6.741834 3.888325
v 5.623627 8.252843 0.000019
v 6.796265 2.824258 -2.725567
v 6.129105 4.632410 -1.927227
v 7.463394 1.016111 -1.927227
v 7.739746 0.267148 0.000019
v 7.463394 1.016107 1.927326
v 6.796265 2.824258 2.725666
v 6.129105 4.632410 1.927326
v 5.852768 5.381368 0.000019
v 23.925232 11.190519 -1.931011
v 24.592392 9.382360 -2.729351
v 24.592392 9.382360 -0.003765
v 25.259521 7.574209 -1.931011
v 25.535873 6.825254 -0.003765
v 25.259521 7.574209 1.923542
v 24.592392 9.382360 2.721882
v 23.925232 11.190519 1.923542
v 23.651779 11.907827 0.017353
v 11.340698 6.558240 -1.920391
v 12.007858 4.750089 -2.718670
v 12.674988 2.941938 -1.920391
v 12.951340 2.192983 0.006855
v 12.674988 2.941938 1.934162
v 12.007858 4.750089 2.732502
v 11.340698 6.558240 1.934162
v 11.067245 7.275541 0.027973
v 16.889008 10.248044 -3.456768
v 18.093079 6.986242 -4.896893
v 22.041641 12.145368 -3.451153
v 23.245697 8.883558 -4.891277
v 19.292358 3.742849 -3.464642
v 24.444992 5.640165 -3.459026
v 19.790955 2.400045 -0.006573
v 24.943573 4.297368 -0.000958
v 19.296738 3.744459 3.451496
v 24.449356 5.641778 3.457111
v 18.099228 6.988527 4.883869
v 23.251846 8.885839 4.889484
v 16.896210 10.241956 3.447040
v 22.048828 12.139280 3.452656
v 16.411057 11.532827 0.022724
v 21.563690 13.430143 0.028339
vt 0.718264 0.173547
vt 0.731171 0.192775
vt 0.698797 0.197041
vt 0.743312 0.139342
vt 0.781677 0.185576
vt 0.722395 0.215157
vt 0.694748 0.165652
vt 0.687038 0.113560
vt 0.703040 0.229418
vt 0.674484 0.178375
vt 0.640297 0.152127
vt 0.681129 0.221917
vt 0.667428 0.201238
vt 0.615112 0.207243
vt 0.709137 0.280070
vt 0.654558 0.254950
vt 0.223103 0.539518
vt 0.219414 0.551335
vt 0.207728 0.539141
vt 0.236789 0.539710
vt 0.231265 0.563534
vt 0.207139 0.554309
vt 0.219825 0.527592
vt 0.232370 0.515754
vt 0.206427 0.567887
vt 0.195449 0.550647
vt 0.208239 0.523664
vt 0.207675 0.510241
vt 0.183245 0.562700
vt 0.192284 0.538403
vt 0.196213 0.527028
vt 0.184116 0.514553
vt 0.178811 0.538028
vt 0.639812 0.073584
vt 0.601677 0.122473
vt 0.532330 0.069224
vt 0.552478 0.034058
vt 0.564293 0.171938
vt 0.503557 0.097768
vt 0.447267 0.003906
vt 0.821474 0.342309
vt 0.841529 0.306603
vt 0.899687 0.351242
vt 0.759843 0.318831
vt 0.795886 0.271570
vt 0.870836 0.277999
vt 0.755155 0.240306
vt 0.832224 0.224535
vt 0.210750 0.398963
vt 0.224084 0.399099
vt 0.223536 0.434340
vt 0.210019 0.434826
vt 0.232795 0.478134
vt 0.209127 0.477979
vt 0.197541 0.398620
vt 0.196553 0.433725
vt 0.184671 0.476814
vt 0.205341 0.679222
vt 0.192133 0.679097
vt 0.192341 0.643959
vt 0.205702 0.643411
vt 0.182353 0.600379
vt 0.206427 0.600287
vt 0.218670 0.679523
vt 0.219235 0.644303
vt 0.230093 0.601047
vt 0.817696 0.131530
vt 0.767767 0.096039
vt 0.812100 0.039456
vt 0.842341 0.067269
vt 0.718412 0.060488
vt 0.793327 0.003930
vt 0.900882 0.011030
vt 0.571948 0.251263
vt 0.619042 0.289761
vt 0.575830 0.347204
vt 0.536661 0.338243
vt 0.666227 0.328827
vt 0.610511 0.369235
vt 0.571299 0.440315
vt 0.348010 0.541929
vt 0.347824 0.555132
vt 0.312721 0.554773
vt 0.312142 0.541190
vt 0.269019 0.564878
vt 0.269061 0.540350
vt 0.348427 0.528605
vt 0.313198 0.527694
vt 0.269956 0.515978
vt 0.067513 0.538382
vt 0.067243 0.525048
vt 0.102519 0.524500
vt 0.103331 0.538015
vt 0.146187 0.513714
vt 0.146510 0.538121
vt 0.067526 0.551712
vt 0.102721 0.551467
vt 0.145830 0.561900
vn -0.393502 0.603899 -0.693154
vn -0.133945 -0.051448 -0.989652
vn -0.405673 -0.139824 -0.903260
vn -0.525484 0.515497 -0.676852
vn 0.107856 -0.712543 -0.693289
vn -0.296158 -0.735934 -0.608844
vn 0.200960 -0.979600 0.000000
vn -0.254762 -0.967004 0.000000
vn 0.107857 -0.712542 0.693290
vn -0.296158 -0.735934 0.608845
vn -0.133938 -0.051447 0.989653
vn -0.405671 -0.139821 0.903262
vn -0.393499 0.603898 0.693157
vn -0.525481 0.515496 0.676856
vn -0.503484 0.864005 -0.000000
vn -0.578268 0.815847 -0.000000
vn 0.746029 0.248889 -0.617653
vn 0.613113 0.661107 -0.432469
vn 0.938178 0.346153 -0.000000
vn 0.881262 -0.171108 -0.440566
vn 0.937851 -0.347038 0.000000
vn 0.881263 -0.171110 0.440564
vn 0.746027 0.248889 0.617656
vn 0.613112 0.661108 0.432469
vn 0.558839 0.829276 0.000000
vn -0.989640 0.143573 -0.000000
vn 0.045764 0.745526 -0.664903
vn 0.308053 0.128360 -0.942670
vn 0.566705 -0.488527 -0.663466
vn 0.671484 -0.741019 0.000000
vn 0.566706 -0.488526 0.663465
vn 0.308055 0.128358 0.942670
vn 0.045764 0.745525 0.664905
vn -0.062503 0.998045 0.000000
vn 0.832535 0.307880 -0.460538
vn 0.719338 0.615511 -0.322024
vn 0.937914 0.346868 0.000008
vn 0.945572 0.002945 -0.325400
vn 0.992450 -0.122647 -0.000520
vn 0.946124 0.003760 0.323782
vn 0.833675 0.308151 0.458289
vn 0.720906 0.613333 0.322671
vn 0.672382 0.740204 -0.000156
vn 0.001182 0.000314 -0.999999
vn -0.243668 0.667025 -0.704062
vn -0.436827 0.581257 -0.686529
vn -0.196339 -0.071806 -0.977903
vn 0.245871 -0.662877 -0.707207
vn 0.043257 -0.721271 -0.691301
vn 0.346621 -0.938005 -0.000300
vn 0.142802 -0.989751 0.000508
vn 0.244357 -0.663771 0.706893
vn 0.044329 -0.720547 0.691987
vn -0.001110 -0.000539 0.999999
vn -0.194559 -0.071359 0.978292
vn -0.245195 0.663882 0.706498
vn -0.433945 0.577904 0.691172
vn -0.344021 0.938961 -0.001206
vn -0.530921 0.847420 0.001294
vn -0.142689 -0.051771 -0.988413
vn -0.385751 0.608086 -0.693849
vn -0.048417 0.725303 -0.686725
vn 0.192548 0.071992 -0.978643
vn 0.098947 -0.708297 -0.698946
vn 0.432295 -0.578355 -0.691828
vn 0.199229 -0.979953 -0.000291
vn 0.531082 -0.847321 0.000258
vn 0.099630 -0.708432 0.698712
vn 0.431615 -0.578444 0.692178
vn -0.141797 -0.051874 0.988536
vn 0.191876 0.071258 0.978829
vn -0.383625 0.604637 0.698030
vn -0.047526 0.721002 0.691301
vn -0.483177 0.875522 0.000702
vn -0.145637 0.989337 0.001354
s 1
g polySurface40 group1
usemtl initialShadingGroup
f 1/67/1 2/68/2 10/69/3 9/70/4
f 2/68/2 3/71/5 11/72/6 10/69/3
f 3/34/5 4/35/7 12/36/8 11/37/6
f 4/35/7 5/38/9 13/39/10 12/36/8
f 5/74/9 6/75/11 14/76/12 13/77/10
f 6/75/11 7/78/13 15/79/14 14/76/12
f 7/44/13 8/45/15 16/42/16 15/41/14
f 8/45/15 1/48/1 9/46/4 16/42/16
f 27/1/17 26/2/18 28/3/19
f 29/7/20 27/1/17 28/3/19
f 30/10/21 29/7/20 28/3/19
f 31/13/22 30/10/21 28/3/19
f 32/12/23 31/13/22 28/3/19
f 33/9/24 32/12/23 28/3/19
f 34/6/25 33/9/24 28/3/19
f 26/2/18 34/6/25 28/3/19
f 9/70/4 10/69/3 17/73/26
f 10/69/3 11/72/6 17/73/26
f 11/37/6 12/36/8 17/40/26
f 12/36/8 13/39/10 17/40/26
f 13/77/10 14/76/12 17/80/26
f 14/76/12 15/79/14 17/80/26
f 15/41/14 16/42/16 17/43/26
f 16/42/16 9/46/4 17/43/26
f 2/68/2 1/67/1 18/5/27 19/4/28
f 3/71/5 2/68/2 19/4/28 20/8/29
f 4/35/7 3/34/5 20/8/29 21/11/30
f 5/38/9 4/35/7 21/11/30 22/14/31
f 6/75/11 5/74/9 22/14/31 23/16/32
f 7/78/13 6/75/11 23/16/32 24/15/33
f 8/45/15 7/44/13 24/15/33 25/47/34
f 1/48/1 8/45/15 25/47/34 18/5/27
f 19/4/28 18/5/27 26/2/18 27/1/17
f 20/8/29 19/4/28 27/1/17 29/7/20
f 21/11/30 20/8/29 29/7/20 30/10/21
f 22/14/31 21/11/30 30/10/21 31/13/22
f 23/16/32 22/14/31 31/13/22 32/12/23
f 24/15/33 23/16/32 32/12/23 33/9/24
f 25/47/34 24/15/33 33/9/24 34/6/25
f 18/5/27 25/47/34 34/6/25 26/2/18
s 3
f 44/17/35 43/18/36 45/19/37
f 46/23/38 44/17/35 45/19/37
f 47/27/39 46/23/38 45/19/37
f 48/31/40 47/27/39 45/19/37
f 49/30/41 48/31/40 45/19/37
f 50/26/42 49/30/41 45/19/37
f 51/22/43 50/26/42 45/19/37
f 43/18/36 51/22/43 45/19/37
f 35/81/44 36/82/45 52/83/46 53/84/47
f 37/87/48 35/81/44 53/84/47 54/88/49
f 38/49/50 37/50/48 54/51/49 55/52/51
f 39/55/52 38/49/50 55/52/51 56/56/53
f 40/90/54 39/91/52 56/92/53 57/93/55
f 41/96/56 40/90/54 57/93/55 58/97/57
f 42/58/58 41/59/56 58/60/57 59/61/59
f 36/64/45 42/58/58 59/61/59 52/65/46
f 61/86/60 60/85/61 62/21/62 63/20/63
f 64/89/64 61/86/60 63/20/63 65/24/65
f 66/54/66 64/53/64 65/24/65 67/28/67
f 68/57/68 66/54/66 67/28/67 69/32/69
f 70/95/70 68/94/68 69/32/69 71/33/71
f 72/98/72 70/95/70 71/33/71 73/29/73
f 74/63/74 72/62/72 73/29/73 75/25/75
f 60/66/61 74/63/74 75/25/75 62/21/62
f 53/84/47 52/83/46 60/85/61 61/86/60
f 43/18/36 44/17/35 63/20/63 62/21/62
f 54/88/49 53/84/47 61/86/60 64/89/64
f 44/17/35 46/23/38 65/24/65 63/20/63
f 55/52/51 54/51/49 64/53/64 66/54/66
f 46/23/38 47/27/39 67/28/67 65/24/65
f 56/56/53 55/52/51 66/54/66 68/57/68
f 47/27/39 48/31/40 69/32/69 67/28/67
f 57/93/55 56/92/53 68/94/68 70/95/70
f 48/31/40 49/30/41 71/33/71 69/32/69
f 58/97/57 57/93/55 70/95/70 72/98/72
f 49/30/41 50/26/42 73/29/73 71/33/71
f 59/61/59 58/60/57 72/62/72 74/63/74
f 50/26/42 51/22/43 75/25/75 73/29/73
f 52/65/46 59/61/59 74/63/74 60/66/61
f 51/22/43 43/18/36 62/21/62 75/25/75
