# This file uses centimeters as units for non-parametric coordinates.

mtllib bucket_low.mtl
g default
v 17.763029 0.000000 -27.261161
v -6.716217 0.000000 -31.836923
v -27.261180 0.000000 -17.763084
v -31.836903 0.000000 6.716140
v -17.763095 0.000000 27.261160
v 6.716153 0.000000 31.836929
v 27.261171 0.000000 17.763078
v 31.836950 0.000000 -6.716157
v 24.209816 76.275430 -37.453337
v -9.238856 77.498336 -43.795390
v -37.275590 83.896607 -24.482690
v -43.476834 85.475020 9.171648
v -24.209995 83.896607 37.453353
v 9.238845 77.498336 43.795374
v 37.275583 76.275430 24.482691
v 43.476768 74.697024 -9.171648
v -0.000004 0.000000 -0.000003
v 21.165418 76.754622 -32.743584
v -8.077077 77.498336 -38.288151
v -32.588296 83.417422 -21.403989
v -38.009695 84.797348 8.018335
v -21.165541 83.417422 32.743588
v 8.077180 77.498336 38.288121
v 32.588172 76.754622 21.403986
v 38.009574 75.374688 -8.018317
v 17.023820 41.766735 -26.410744
v -6.517923 41.766735 -30.896664
v -26.241337 41.766735 -17.283755
v -30.593079 41.766735 6.453764
v -17.023718 41.766735 26.410708
v 6.517798 41.766735 30.896661
v 26.241329 41.766735 17.283749
v 30.593071 41.766735 -6.453769
v 13.949797 6.613204 -21.641775
v -5.340894 6.613247 -25.317686
v -0.000004 6.613247 -0.000003
v -21.502908 6.613279 -14.162853
v -25.069012 6.613300 5.288427
v -13.949863 6.613279 21.641774
v 5.340885 6.613247 25.317681
v 21.502954 6.613204 14.162829
v 25.068891 6.613190 -5.288409
v 17.433632 17.928050 -26.755559
v 18.173600 31.019224 -27.928570
v -6.591642 17.930308 -31.246393
v -6.874436 31.022211 -32.587213
v -26.755282 17.940353 -17.433391
v -27.739559 31.046991 -18.096069
v -31.246001 17.943502 6.591493
v -32.355885 31.054650 6.825614
v -17.433419 17.939781 26.755222
v -18.066302 31.047552 27.759106
v 6.591520 17.930392 31.246405
v 6.874430 31.022293 32.587221
v 26.755553 17.928815 17.433604
v 27.906206 31.018481 18.207663
v 31.246495 17.927566 -6.591612
v 32.631526 31.015356 -6.883784
vt 0.927379 0.901744
vt 0.994338 0.834791
vt 0.832701 0.673139
vt 0.765742 0.740092
vt 0.765738 0.834781
vt 0.609896 0.732760
vt 0.496542 0.745808
vt 0.496524 0.579282
vt 0.588931 0.573180
vt 0.383189 0.732814
vt 0.404120 0.573209
vt 0.496508 0.443432
vt 0.570459 0.438840
vt 0.422556 0.438862
vt 0.170349 0.648141
vt 0.918068 0.586026
vt 0.846344 0.479328
vt 0.227740 0.523648
vt 0.822740 0.648074
vt 0.765299 0.523583
vt 0.777919 0.363638
vt 0.281503 0.398779
vt 0.765811 0.739925
vt 0.832690 0.901739
vt 0.880040 0.787442
vt 0.927390 0.673144
vt 0.994342 0.740102
vt 0.642490 0.424302
vt 0.880040 0.787442
vt 0.350524 0.424341
vt 0.831702 0.665619
vt 0.724767 0.707991
vt 0.717295 0.689918
vt 0.614955 0.752739
vt 0.935678 0.598205
vt 0.496314 0.765917
vt 0.161104 0.665821
vt 0.378021 0.752309
vt 0.268358 0.708062
vt 0.275798 0.689986
vt 0.679007 0.555018
vt 0.314042 0.555068
vt 0.711505 0.398725
vt 0.928012 0.902141
vt 0.994269 0.834958
vt 0.993613 0.739941
vt 0.926427 0.672749
vt 0.832068 0.672742
vt 0.146680 0.479418
vt 0.215079 0.363709
vt 0.057683 0.597930
vt 0.074969 0.586145
vt 0.833653 0.902135
vt 0.766467 0.834942
vt 0.856041 0.064834
vt 0.120163 0.110560
vt 0.666997 0.071803
vt 0.593290 0.157647
vt 0.749208 0.041675
vt 0.684828 0.137442
vt 0.832204 0.003906
vt 0.772656 0.105505
vt 0.165622 0.004035
vt 0.250185 0.041561
vt 0.142548 0.066636
vt 0.332003 0.071919
vt 0.226364 0.106610
vt 0.415120 0.090632
vt 0.314302 0.138241
vt 0.499345 0.097261
vt 0.405909 0.158063
vt 0.583581 0.090572
vt 0.499617 0.165224
vt 0.698732 0.186167
vt 0.626731 0.383810
vt 0.792032 0.152113
vt 0.751312 0.362047
vt 0.878828 0.108076
vt 0.996094 0.282158
vt 0.879394 0.339951
vt 0.207007 0.153758
vt 0.003906 0.285198
vt 0.300601 0.187265
vt 0.120938 0.342287
vt 0.398921 0.208169
vt 0.249136 0.363487
vt 0.499790 0.215545
vt 0.373825 0.384507
vt 0.600610 0.207608
vt 0.500280 0.385913
vn -0.000000 -1.000000 -0.000000
vn 0.000000 -1.000000 0.000000
vn -0.000000 -1.000000 -0.000000
vn -0.000000 -1.000000 -0.000000
vn 0.000000 -1.000000 0.000000
vn -0.000000 -1.000000 -0.000000
vn 0.000000 -1.000000 0.000000
vn 0.000000 -1.000000 0.000000
vn 0.000000 -1.000000 0.000000
vn -0.511037 0.371024 0.775360
vn 0.191602 0.371948 0.908264
vn 0.000002 1.000000 -0.000000
vn 0.780685 0.371025 0.502864
vn 0.908984 0.370107 -0.191754
vn 0.511037 0.371023 -0.775360
vn -0.191603 0.371948 -0.908264
vn -0.780685 0.371023 -0.502864
vn -0.908983 0.370108 0.191754
vn 0.078425 0.996397 -0.032281
vn 0.111644 0.992234 -0.054831
vn 0.111290 0.992278 -0.054758
vn 0.078559 0.996387 -0.032256
vn 0.150256 0.987517 -0.047246
vn 0.150307 0.987508 -0.047282
vn 0.117809 0.992725 -0.024852
vn 0.117809 0.992725 -0.024852
vn 0.156535 0.987518 -0.017470
vn 0.156597 0.987508 -0.017458
vn 0.124280 0.992234 0.005065
vn 0.123925 0.992278 0.005141
vn 0.084782 0.996397 -0.002148
vn 0.084894 0.996387 -0.002225
vn 0.117808 0.992725 -0.024852
vn 0.117808 0.992725 -0.024852
vn -0.520492 0.212111 0.827101
vn 0.259276 0.200091 0.944849
vn 0.220095 0.184132 0.957942
vn -0.534821 0.189772 0.823379
vn 0.858412 0.182087 0.479556
vn 0.837120 0.173726 0.518700
vn 0.963256 0.175629 -0.203205
vn 0.964373 0.169108 -0.203440
vn 0.591554 0.182087 -0.785435
vn 0.556266 0.173725 -0.812643
vn -0.144474 0.200092 -0.969067
vn -0.185605 0.184132 -0.965218
vn -0.810236 0.212112 -0.546376
vn -0.821839 0.189773 -0.537184
vn -0.955393 0.215878 0.201545
vn -0.960389 0.191330 0.202598
vn 0.545717 -0.026343 -0.837555
vn 0.526412 -0.217966 -0.821816
vn 0.954682 -0.219140 -0.201394
vn 0.978118 -0.026615 -0.206341
vn -0.207123 -0.024398 -0.978011
vn -0.227531 -0.211488 -0.950528
vn -0.838233 -0.020538 -0.544926
vn -0.836568 -0.195728 -0.511707
vn -0.978298 -0.018445 0.206379
vn -0.960914 -0.188556 0.202707
vn -0.546690 -0.020540 0.837083
vn -0.558587 -0.195729 0.806021
vn 0.205576 -0.024398 0.978337
vn 0.175810 -0.211489 0.961438
vn 0.837532 -0.026341 0.545753
vn 0.813515 -0.217967 0.539151
vn 0.545601 0.033640 -0.837370
vn -0.206364 0.033641 -0.977897
vn -0.837402 0.033639 -0.545552
vn -0.977912 0.033639 0.206293
vn -0.545678 0.033640 0.837319
vn 0.206235 0.033641 0.977924
vn 0.837351 0.033642 0.545629
vn 0.977912 0.033641 -0.206292
vn -0.259296 -0.233281 -0.937201
vn 0.511532 -0.242010 -0.824479
vn -0.850911 -0.214496 -0.479523
vn -0.957247 -0.207126 0.201934
vn -0.584708 -0.214497 0.782373
vn 0.141369 -0.233281 0.962078
vn 0.800979 -0.242010 0.547599
vn 0.948960 -0.243722 -0.200187
s 1
g pCylinder1
usemtl lambert2SG
f 2/24/1 1/5/2 17/25/3
f 3/1/4 2/24/1 17/25/3
f 4/2/5 3/1/4 17/25/3
f 5/27/6 4/2/5 17/25/3
f 6/26/7 5/27/6 17/25/3
f 7/3/8 6/26/7 17/25/3
f 8/4/9 7/3/8 17/25/3
f 1/5/2 8/4/9 17/25/3
s 2
f 34/23/10 35/48/11 36/29/12
f 35/48/11 37/47/13 36/29/12
f 37/47/13 38/46/14 36/29/12
f 38/46/14 39/45/15 36/29/12
f 39/45/15 40/44/16 36/29/12
f 40/44/16 41/53/17 36/29/12
f 41/53/17 42/54/18 36/29/12
f 42/54/18 34/23/10 36/29/12
s 3
f 9/31/19 10/32/20 19/33/21 18/19/22
f 10/32/20 11/34/23 20/6/24 19/33/21
f 11/34/23 12/36/25 21/7/26 20/6/24
f 12/36/25 13/38/27 22/10/28 21/7/26
f 13/38/27 14/39/29 23/40/30 22/10/28
f 14/39/29 15/37/31 24/15/32 23/40/30
f 15/37/31 16/51/33 25/52/34 24/15/32
f 16/35/33 9/31/19 18/19/22 25/16/34
s 2
f 18/19/35 19/33/36 27/41/37 26/20/38
f 19/33/36 20/6/39 28/9/40 27/41/37
f 20/6/39 21/7/41 29/8/42 28/9/40
f 21/7/41 22/10/43 30/11/44 29/8/42
f 22/10/43 23/40/45 31/42/46 30/11/44
f 23/40/45 24/15/47 32/18/48 31/42/46
f 24/15/47 25/52/49 33/49/50 32/18/48
f 25/16/49 18/19/35 26/20/38 33/17/50
f 26/20/38 27/41/37 35/28/11 34/43/10
f 27/41/37 28/9/40 37/13/13 35/28/11
f 28/9/40 29/8/42 38/12/14 37/13/13
f 29/8/42 30/11/44 39/14/15 38/12/14
f 30/11/44 31/42/46 40/30/16 39/14/15
f 31/42/46 32/18/48 41/22/17 40/30/16
f 32/18/48 33/49/50 42/50/18 41/22/17
f 33/17/50 26/20/38 34/43/10 42/21/18
s 5
f 43/58/51 44/89/52 58/87/53 57/73/54
f 44/89/52 43/58/51 45/60/55 46/74/56
f 46/74/56 45/60/55 47/62/57 48/76/58
f 48/76/58 47/62/57 49/55/59 50/78/60
f 50/56/60 49/65/59 51/67/61 52/81/62
f 52/81/62 51/67/61 53/69/63 54/83/64
f 54/83/64 53/69/63 55/71/65 56/85/66
f 56/85/66 55/71/65 57/73/54 58/87/53
f 1/72/67 2/57/68 45/60/55 43/58/51
f 2/57/68 3/59/69 47/62/57 45/60/55
f 3/59/69 4/61/70 49/55/59 47/62/57
f 4/63/70 5/64/71 51/67/61 49/65/59
f 5/64/71 6/66/72 53/69/63 51/67/61
f 6/66/72 7/68/73 55/71/65 53/69/63
f 7/68/73 8/70/74 57/73/54 55/71/65
f 8/70/74 1/72/67 43/58/51 57/73/54
f 44/89/52 46/74/56 10/77/75 9/75/76
f 46/74/56 48/76/58 11/80/77 10/77/75
f 48/76/58 50/78/60 12/79/78 11/80/77
f 50/56/60 52/81/62 13/84/79 12/82/78
f 52/81/62 54/83/64 14/86/80 13/84/79
f 54/83/64 56/85/66 15/88/81 14/86/80
f 56/85/66 58/87/53 16/90/82 15/88/81
f 58/87/53 44/89/52 9/75/76 16/90/82
