# This file uses centimeters as units for non-parametric coordinates.

mtllib bucket_low.mtl
g default
v 17.793691 0.000000 -27.308149
v -6.727739 0.000000 -31.891822
v -27.308154 0.000000 -17.793694
v -31.891826 0.000000 6.727737
v -17.793698 0.000000 27.308151
v 6.727733 0.000000 31.891823
v 27.308149 0.000000 17.793697
v 31.891819 0.000000 -6.727735
v 17.341653 24.599743 -26.614403
v -6.556825 24.599743 -31.081628
v -26.614407 24.599743 -17.341656
v -31.081632 24.599743 6.556823
v -17.341660 24.599743 26.614404
v 6.556819 24.599743 31.081629
v 26.614402 24.599743 17.341659
v 31.081628 24.599743 -6.556822
v 24.251620 76.406944 -37.517921
v -9.254784 77.631954 -43.870893
v -37.339868 84.041259 -24.524895
v -43.551763 85.622390 9.187458
v -24.251631 84.041259 37.517923
v 9.254776 77.631954 43.870895
v 37.339865 76.406944 24.524899
v 43.551763 74.825820 -9.187458
v -0.000003 0.000000 0.000001
v 21.201984 76.886954 -32.800050
v -8.090997 77.631954 -38.354139
v -32.644388 83.561252 -21.440894
v -38.075140 84.943550 8.032137
v -21.201995 83.561252 32.800052
v 8.090990 77.631954 38.354140
v 32.644383 76.886954 21.440897
v 38.075137 75.504649 -8.032137
v 17.053141 41.838747 -26.456271
v -6.529043 41.838747 -30.949933
v -26.286604 41.838747 -17.313539
v -30.645837 41.838747 6.464889
v -17.053148 41.838747 26.456272
v 6.529037 41.838747 30.949934
v 26.286603 41.838747 17.313543
v 30.645833 41.838747 -6.464889
v 13.973871 6.624612 -21.679085
v -5.350100 6.624648 -25.361331
v -0.000003 6.624648 0.000001
v -21.540055 6.624684 -14.187249
v -25.112146 6.624702 5.297530
v -13.973876 6.624684 21.679086
v 5.350094 6.624648 25.361332
v 21.540054 6.624612 14.187251
v 25.112143 6.624591 -5.297530
vt 0.993237 0.885524
vt 0.993242 0.790157
vt 0.122794 0.453376
vt 0.774902 0.493182
vt 0.239780 0.404845
vt 0.206951 0.494550
vt -0.008268 0.650323
vt 0.873533 0.705721
vt 0.109631 0.707802
vt 0.763007 0.790147
vt 0.763003 0.885513
vt 0.491184 0.554752
vt 0.393250 0.547308
vt 0.830434 0.952950
vt 0.589072 0.546829
vt 0.491680 0.751735
vt 0.364335 0.750299
vt 0.619023 0.749687
vt 0.557746 0.399082
vt 0.443434 0.412250
vt 0.443426 0.244425
vt 0.536565 0.238249
vt 0.329125 0.399123
vt 0.350290 0.238268
vt 0.443418 0.107489
vt 0.517897 0.102860
vt 0.368939 0.102873
vt 0.114575 0.313550
vt 0.868325 0.250843
vt 0.795914 0.143386
vt 0.172564 0.188136
vt 0.772311 0.313521
vt 0.714285 0.188102
vt 0.726817 0.026858
vt 0.226896 0.062341
vt 0.057166 0.721039
vt 0.925800 0.952955
vt 0.878122 0.837835
vt 0.830444 0.722716
vt 0.925811 0.722720
vt 0.590441 0.088170
vt 0.094738 0.812202
vt 0.296395 0.088193
vt 0.781370 0.331193
vt 0.673581 0.374033
vt 0.666031 0.355823
vt 0.562854 0.419218
vt 0.886096 0.263091
vt 0.443203 0.432519
vt 0.105228 0.331357
vt 0.323905 0.418772
vt 0.213333 0.374078
vt 0.220853 0.355865
vt 0.684323 0.525996
vt 0.744507 0.727861
vt 0.322220 0.435414
vt 0.297805 0.526917
vt 0.238759 0.729131
vt 0.627342 0.219880
vt 0.259514 0.219909
vt 0.859079 0.451201
vt 0.991140 0.647616
vt 0.154580 0.367067
vt 0.490843 0.460968
vt 0.575728 0.454266
vt 0.405972 0.454268
vt 0.659794 0.435415
vt 0.659936 0.062312
vt 0.057109 0.903866
vt 0.132310 0.903365
vt 0.185502 0.849461
vt 0.185525 0.773732
vt 0.132367 0.720538
vt 0.090926 0.143435
vt 0.160009 0.026896
vt 0.001070 0.262762
vt 0.018515 0.250914
vt 0.003950 0.850672
vt 0.003974 0.774943
vt 0.742650 0.405136
vt 0.826298 0.367172
vn 0.545615 0.033641 -0.837360
vn -0.206295 0.033641 -0.977911
vn -0.224214 -0.165030 -0.960465
vn 0.533106 -0.168899 -0.829018
vn -0.837360 0.033641 -0.545615
vn -0.839995 -0.154378 -0.520169
vn -0.977911 0.033641 0.206295
vn -0.967491 -0.149352 0.204097
vn -0.545615 0.033641 0.837360
vn -0.558303 -0.154378 0.815147
vn 0.206295 0.033641 0.977911
vn 0.182856 -0.165030 0.969190
vn 0.837360 0.033641 0.545615
vn 0.822547 -0.168899 0.543037
vn 0.977911 0.033641 -0.206295
vn 0.964329 -0.169371 -0.203430
vn -0.256340 -0.233288 -0.938012
vn 0.512367 -0.242025 -0.823957
vn -0.849531 -0.214658 -0.481891
vn -0.957235 -0.207180 0.201933
vn -0.582489 -0.214658 0.783983
vn 0.144398 -0.233288 0.961627
vn 0.801531 -0.242025 0.546783
vn 0.948970 -0.243679 -0.200190
vn 0.000000 -1.000000 0.000000
vn 0.000000 -1.000000 0.000000
vn 0.000000 -1.000000 0.000000
vn 0.000000 -1.000000 0.000000
vn 0.000000 -1.000000 0.000000
vn 0.000000 -1.000000 0.000000
vn 0.000000 -1.000000 0.000000
vn 0.000000 -1.000000 0.000000
vn 0.000000 -1.000000 0.000000
vn 0.000002 1.000000 -0.000000
vn 0.000002 1.000000 -0.000000
vn 0.000002 1.000000 -0.000000
vn 0.000002 1.000000 -0.000000
vn 0.000002 1.000000 -0.000000
vn 0.000002 1.000000 -0.000000
vn 0.000002 1.000000 -0.000000
vn 0.000002 1.000000 -0.000001
vn 0.000002 1.000000 -0.000000
vn 0.078424 0.996397 -0.032281
vn 0.111644 0.992234 -0.054832
vn 0.111290 0.992278 -0.054759
vn 0.078558 0.996387 -0.032256
vn 0.150255 0.987518 -0.047247
vn 0.150306 0.987508 -0.047283
vn 0.117807 0.992725 -0.024852
vn 0.117807 0.992725 -0.024852
vn 0.156536 0.987518 -0.017472
vn 0.156597 0.987508 -0.017460
vn 0.124279 0.992234 0.005063
vn 0.123925 0.992278 0.005139
vn 0.084781 0.996397 -0.002149
vn 0.084893 0.996388 -0.002226
vn 0.117807 0.992725 -0.024852
vn 0.117807 0.992725 -0.024852
vn -0.180515 0.193732 0.964304
vn -0.180515 0.193731 0.964304
vn -0.182510 0.174449 0.967604
vn -0.182512 0.174439 0.967606
vn 0.574587 0.177560 0.798951
vn 0.574587 0.177560 0.798951
vn 0.569504 0.165653 0.805123
vn 0.569531 0.165714 0.805092
vn 0.971093 0.163093 0.174296
vn 0.971093 0.163093 0.174296
vn 0.971827 0.156925 0.175860
vn 0.971826 0.156937 0.175857
vn 0.817940 0.163093 -0.551702
vn 0.817940 0.163093 -0.551702
vn 0.817980 0.156937 -0.553425
vn 0.817980 0.156925 -0.553429
vn 0.202901 0.177560 -0.962966
vn 0.202901 0.177560 -0.962966
vn 0.195796 0.165714 -0.966542
vn 0.195759 0.165653 -0.966559
vn -0.554648 0.193731 -0.809218
vn -0.554648 0.193732 -0.809218
vn -0.557808 0.174439 -0.811432
vn -0.557806 0.174449 -0.811431
vn -0.962720 0.199952 -0.182181
vn -0.962720 0.199952 -0.182181
vn -0.967451 0.177259 -0.180606
vn -0.967451 0.177258 -0.180606
vn -0.807095 0.199952 0.555532
vn -0.807095 0.199952 0.555532
vn -0.812060 0.177258 0.556003
vn -0.812059 0.177258 0.556002
vn -0.185124 0.147984 0.971509
vn -0.185124 0.147984 0.971509
vn 0.561775 0.147984 0.813947
vn 0.561775 0.147984 0.813947
vn 0.972926 0.146977 0.178364
vn 0.972926 0.146977 0.178364
vn 0.817974 0.146977 -0.556163
vn 0.817974 0.146977 -0.556163
vn 0.185124 0.147984 -0.971509
vn 0.185124 0.147984 -0.971509
vn -0.561775 0.147984 -0.813947
vn -0.561775 0.147984 -0.813947
vn -0.972926 0.146977 -0.178364
vn -0.972926 0.146977 -0.178364
vn -0.817973 0.146977 0.556163
vn -0.817973 0.146977 0.556163
s 1
g pCylinder1
usemtl lambert2SG
f 1/65/1 2/67/2 10/54/3 9/15/4
f 2/67/2 3/80/5 11/4/6 10/54/3
f 3/80/5 4/81/7 12/61/8 11/4/6
f 4/63/7 5/5/9 13/6/10 12/3/8
f 5/5/9 6/56/11 14/57/12 13/6/10
f 6/56/11 7/66/13 15/13/14 14/57/12
f 7/66/13 8/64/15 16/12/16 15/13/14
f 8/64/15 1/65/1 9/15/4 16/12/16
f 9/15/4 10/54/3 18/55/17 17/18/18
f 10/54/3 11/4/6 19/8/19 18/55/17
f 11/4/6 12/61/8 20/62/20 19/8/19
f 12/3/8 13/6/10 21/9/21 20/7/20
f 13/6/10 14/57/12 22/58/22 21/9/21
f 14/57/12 15/13/14 23/17/23 22/58/22
f 15/13/14 16/12/16 24/16/24 23/17/23
f 16/12/16 9/15/4 17/18/18 24/16/24
s 2
f 2/37/25 1/14/26 25/38/27
f 3/1/28 2/37/25 25/38/27
f 4/2/29 3/1/28 25/38/27
f 5/40/30 4/2/29 25/38/27
f 6/39/31 5/40/30 25/38/27
f 7/10/32 6/39/31 25/38/27
f 8/11/33 7/10/32 25/38/27
f 1/14/26 8/11/33 25/38/27
s 3
f 42/36/34 43/73/35 44/42/36
f 43/73/35 45/72/37 44/42/36
f 45/72/37 46/71/38 44/42/36
f 46/71/38 47/70/39 44/42/36
f 47/70/39 48/69/40 44/42/36
f 48/69/40 49/78/41 44/42/36
f 49/78/41 50/79/42 44/42/36
f 50/79/42 42/36/34 44/42/36
s 4
f 17/44/43 18/45/44 27/46/45 26/32/46
f 18/45/44 19/47/47 28/19/48 27/46/45
f 19/47/47 20/49/49 29/20/50 28/19/48
f 20/49/49 21/51/51 30/23/52 29/20/50
f 21/51/51 22/52/53 31/53/54 30/23/52
f 22/52/53 23/50/55 32/28/56 31/53/54
f 23/50/55 24/76/57 33/77/58 32/28/56
f 24/48/57 17/44/43 26/32/46 33/29/58
s 5
f 26/32/59 27/46/60 35/59/61 34/33/62
s 6
f 27/46/63 28/19/64 36/22/65 35/59/66
s 7
f 28/19/67 29/20/68 37/21/69 36/22/70
s 8
f 29/20/71 30/23/72 38/24/73 37/21/74
s 9
f 30/23/75 31/53/76 39/60/77 38/24/78
s 10
f 31/53/79 32/28/80 40/31/81 39/60/82
s 11
f 32/28/83 33/77/84 41/74/85 40/31/86
s 12
f 33/29/87 26/32/88 34/33/89 41/30/90
s 5
f 34/33/62 35/59/61 43/41/91 42/68/92
s 6
f 35/59/66 36/22/65 45/26/93 43/41/94
s 7
f 36/22/70 37/21/69 46/25/95 45/26/96
s 8
f 37/21/74 38/24/73 47/27/97 46/25/98
s 9
f 38/24/78 39/60/77 48/43/99 47/27/100
s 10
f 39/60/82 40/31/81 49/35/101 48/43/102
s 11
f 40/31/86 41/74/85 50/75/103 49/35/104
s 12
f 41/30/90 34/33/89 42/68/105 50/34/106
