# This file uses centimeters as units for non-parametric coordinates.

mtllib desk_low.mtl
g default
v -108.673981 68.160988 73.408890
v -103.336975 66.134232 73.408890
v -103.336975 68.160988 78.745972
v -103.336975 73.053993 80.956635
v -108.673981 73.053993 78.745972
v -110.884674 73.053993 73.408890
v 108.673950 68.160988 73.408890
v 110.884674 73.053993 73.408890
v 108.673950 73.053993 78.745972
v 103.336853 73.053993 80.956635
v 103.336853 68.160988 78.745972
v 103.336853 66.134232 73.408890
v -108.673981 99.596970 73.408890
v -110.884674 94.703964 73.408890
v -108.673981 94.703964 78.745972
v -103.336975 94.703964 80.956635
v -103.336975 99.596970 78.745972
v -103.336975 101.623718 73.408890
v 108.673950 99.596970 73.408890
v 103.336853 101.623718 73.408890
v 103.336853 99.596970 78.745972
v 103.336853 94.703964 80.956635
v 108.673950 94.703964 78.745972
v 110.884674 94.703964 73.408890
v -108.673981 94.703964 -78.745941
v -110.884674 94.703964 -73.408844
v -108.673981 99.596970 -73.408844
v -103.336975 101.623718 -73.408844
v -103.336975 99.596970 -78.745941
v -103.336975 94.703964 -80.956635
v 108.673950 94.703964 -78.745941
v 103.336853 94.703964 -80.956635
v 103.336853 99.596970 -78.745941
v 103.336853 101.623718 -73.408844
v 108.673950 99.596970 -73.408844
v 110.884674 94.703964 -73.408844
v -108.673981 68.160988 -73.408844
v -110.884674 73.053993 -73.408844
v -108.673981 73.053993 -78.745941
v -103.336975 73.053993 -80.956635
v -103.336975 68.160988 -78.745941
v -103.336975 66.134232 -73.408844
v 108.673950 68.160988 -73.408844
v 103.336853 66.134232 -73.408844
v 103.336853 68.160988 -78.745941
v 103.336853 73.053993 -80.956635
v 108.673950 73.053993 -78.745941
v 110.884674 73.053993 -73.408844
v -107.693146 69.060265 77.765076
v 107.693024 69.060265 77.765076
v -107.693146 98.697685 77.765076
v 107.693024 98.697685 77.765076
v -107.693146 98.697685 -77.765045
v 107.693024 98.697685 -77.765045
v -107.693146 69.060265 -77.765045
v 107.693024 69.060265 -77.765045
v -87.598816 22.616653 63.955658
v 87.598663 22.616653 63.955658
v -98.865509 73.682281 72.181458
v 98.865387 73.682281 72.181458
v -98.865509 73.682281 -72.181458
v 98.865387 73.682281 -72.181458
v -87.598816 22.616653 -63.955658
v 87.598663 22.616653 -63.955658
v 43.170258 22.616653 63.955658
v 48.722717 73.682281 72.181458
v 48.722717 73.682281 -72.181458
v 43.170258 22.616653 -63.955658
v -43.170349 22.616653 63.955658
v -48.722809 73.682281 72.181458
v -48.722809 73.682281 -72.181458
v -43.170349 22.616653 -63.955658
v -87.598816 22.616653 21.318542
v -98.865509 73.682281 24.060486
v 98.865387 73.682281 24.060486
v 87.598663 22.616653 21.318542
v 43.170258 22.616653 21.318542
v -43.170349 22.616653 21.318542
v -87.598816 22.616653 -21.318542
v -98.865509 73.682281 -24.060486
v 98.865387 73.682281 -24.060486
v 87.598663 22.616653 -21.318542
v 43.170258 22.616653 -21.318542
v -43.170349 22.616653 -21.318542
v -83.076080 0.000004 -59.615234
v -47.693115 0.000000 -59.615234
v -47.693115 0.000000 -25.658936
v -83.076080 0.000000 -25.658936
v 47.693024 0.000000 -59.615234
v 47.693024 0.000000 -25.658936
v 83.075958 0.000004 -59.615234
v 83.075958 0.000000 -25.658936
v 47.693024 0.000000 25.658936
v 47.693024 0.000000 59.615234
v 83.075958 0.000000 25.658936
v 83.075958 0.000004 59.615234
v -47.693115 0.000000 25.658936
v -83.076080 0.000000 25.658936
v -47.693115 0.000000 59.615234
v -83.076080 0.000004 59.615234
v -110.884674 94.703964 59.698853
v -108.673981 99.596970 59.698853
v -108.673981 99.596970 -59.698792
v -110.884674 94.703964 -59.698792
v -103.336975 101.623718 59.698853
v -103.336975 101.623718 -59.698792
v 103.336853 101.623718 59.698853
v 108.673950 99.596970 59.698853
v 108.673950 99.596970 -59.698792
v 103.336853 101.623718 -59.698792
v 110.884674 94.703964 59.698853
v 110.884674 94.703964 -59.698792
v 110.884674 31.226616 59.698853
v 110.884674 31.226616 -59.698792
v -110.884674 31.226616 -59.698792
v -110.884674 31.226616 59.698853
v -111.972687 94.916740 59.698853
v -109.564270 100.544922 59.698853
v -109.564270 100.544922 -59.698792
v -111.972687 94.916740 -59.698792
v -103.513062 102.700211 59.698853
v -103.513062 102.700211 -59.698792
v 103.512939 102.700203 59.698853
v 109.564240 100.544930 59.698853
v 109.564240 100.544930 -59.698792
v 103.512939 102.700203 -59.698792
v 111.972687 94.916748 59.698853
v 111.972687 94.916748 -59.698792
v 111.930084 31.225279 -59.698792
v 111.930084 31.225279 59.698853
v -111.930084 31.225279 59.698853
v -111.930084 31.225279 -59.698792
vt 0.003964 0.318656
vt 0.012574 0.318713
vt 0.012518 0.555021
vt 0.003906 0.555067
vt 0.012393 0.309434
vt 0.005379 0.311019
vt 0.047317 0.318792
vt 0.047252 0.554966
vt 0.012304 0.564199
vt 0.005298 0.562663
vt 0.048163 0.309558
vt 0.055856 0.318853
vt 0.055794 0.554916
vt 0.048108 0.564299
vt 0.056479 0.310550
vt 0.056435 0.563222
vt 0.449065 0.318724
vt 0.457677 0.318675
vt 0.457673 0.555101
vt 0.449063 0.555047
vt 0.449273 0.309546
vt 0.456280 0.311077
vt 0.449251 0.564326
vt 0.456264 0.562737
vt 0.414320 0.554982
vt 0.414332 0.318792
vt 0.413474 0.309458
vt 0.413474 0.564215
vt 0.405791 0.318845
vt 0.405781 0.554925
vt 0.405150 0.310526
vt 0.405151 0.563219
vt 0.899996 0.282281
vt 0.899995 0.213799
vt 0.983988 0.200585
vt 0.983989 0.277875
vt 0.628158 0.462559
vt 0.862950 0.220771
vt 0.899998 0.350764
vt 0.983991 0.355166
vt 0.899999 0.419246
vt 0.983992 0.432456
vt 0.880394 0.733607
vt 0.862953 0.357736
vt 0.618598 0.213804
vt 0.618599 0.282286
vt 0.534607 0.277884
vt 0.534605 0.200594
vt 0.895017 0.517143
vt 0.655645 0.275314
vt 0.618601 0.350769
vt 0.534608 0.355175
vt 0.618602 0.419251
vt 0.534610 0.432465
vt 0.613527 0.679061
vt 0.655647 0.412279
vt 0.801140 0.524099
vt 0.801151 0.455617
vt 0.838195 0.462594
vt 0.838186 0.517134
vt 0.722036 0.455603
vt 0.722024 0.524086
vt 0.684980 0.517108
vt 0.684989 0.462569
vt 0.786517 0.740576
vt 0.786519 0.672094
vt 0.823564 0.679066
vt 0.823563 0.733606
vt 0.707404 0.672092
vt 0.707402 0.740574
vt 0.670357 0.733602
vt 0.670358 0.679062
vt 0.480687 0.814284
vt 0.470884 0.814277
vt 0.470833 0.622529
vt 0.480631 0.622518
vt 0.582910 0.622411
vt 0.583015 0.814256
vt 0.117768 0.814310
vt 0.107969 0.814322
vt 0.107913 0.622556
vt 0.117716 0.622563
vt 0.005690 0.814429
vt 0.005586 0.622584
vt 0.882381 0.003918
vt 0.882403 0.195691
vt 0.873779 0.195692
vt 0.873757 0.003919
vt 0.984358 0.195679
vt 0.984336 0.003906
vt 0.523465 0.003959
vt 0.523486 0.195732
vt 0.514863 0.195733
vt 0.514841 0.003960
vt 0.412885 0.003971
vt 0.412907 0.195744
vt 0.064790 0.248963
vt 0.055633 0.249122
vt 0.055550 0.013107
vt 0.064706 0.013149
vt 0.064786 0.258079
vt 0.057268 0.257869
vt 0.064667 0.003987
vt 0.057125 0.005565
vt 0.396788 0.013067
vt 0.396847 0.248931
vt 0.396852 0.258049
vt 0.396819 0.003906
vt 0.406001 0.249081
vt 0.405949 0.013016
vt 0.404400 0.257844
vt 0.404362 0.005476
vt 0.064916 0.319037
vt 0.064861 0.554743
vt 0.064791 0.309944
vt 0.396724 0.319023
vt 0.396720 0.554747
vt 0.064728 0.563835
vt 0.396852 0.309930
vt 0.396850 0.563842
vt 0.689959 0.282285
vt 0.689958 0.213803
vt 0.828636 0.213800
vt 0.828637 0.282283
vt 0.689960 0.350768
vt 0.828638 0.350765
vt 0.689962 0.419250
vt 0.828640 0.419247
vt 0.460594 0.814296
vt 0.460548 0.622513
vt 0.128052 0.814327
vt 0.128006 0.622543
vt 0.864609 0.195693
vt 0.864588 0.003920
vt 0.532656 0.195731
vt 0.532634 0.003958
vt 0.004011 0.814431
vt 0.003906 0.622586
vt 0.584590 0.622409
vt 0.584694 0.814254
vt 0.064770 0.266653
vt 0.396865 0.266626
vt 0.055631 0.265875
vt 0.406149 0.265862
vt 0.396892 0.301367
vt 0.064755 0.301383
vt 0.055373 0.302181
vt 0.406129 0.302149
vt 0.055448 0.571553
vt 0.064682 0.572398
vt 0.064623 0.607151
vt 0.055344 0.607341
vt 0.396892 0.572406
vt 0.396950 0.607152
vt 0.064583 0.615765
vt 0.056941 0.614358
vt 0.406225 0.571550
vt 0.406128 0.607366
vt 0.396986 0.615768
vt 0.404587 0.614376
vt 0.606260 0.770589
vt 0.677620 0.770591
vt 0.668700 0.853668
vt 0.588162 0.853666
vt 0.816298 0.770594
vt 0.825214 0.853672
vt 0.887657 0.770596
vt 0.905751 0.853674
vt 0.920358 0.637214
vt 0.839820 0.637201
vt 0.830916 0.554122
vt 0.902276 0.554134
vt 0.683306 0.637174
vt 0.692238 0.554098
vt 0.602768 0.637161
vt 0.620878 0.554087
vt 0.830937 0.425604
vt 0.902297 0.425616
vt 0.620900 0.425569
vt 0.692259 0.425581
vt 0.816301 0.642077
vt 0.887661 0.642078
vt 0.606264 0.642071
vt 0.677623 0.642073
vt 0.480950 0.816023
vt 0.470878 0.816206
vt 0.460334 0.816023
vt 0.583014 0.815935
vt 0.128311 0.816054
vt 0.117774 0.816239
vt 0.107710 0.816061
vt 0.005695 0.816108
vt 0.470826 0.620600
vt 0.480890 0.620779
vt 0.582905 0.620731
vt 0.460289 0.620786
vt 0.128267 0.620816
vt 0.117723 0.620633
vt 0.107650 0.620817
vt 0.005586 0.620905
vt 0.655646 0.357740
vt 0.613525 0.733600
vt 0.880395 0.679067
vt 0.862954 0.412275
vt 0.628149 0.517099
vt 0.862951 0.275310
vt 0.655644 0.220775
vt 0.895026 0.462604
vn -0.009448 -0.999868 0.013209
vn -0.675871 -0.736960 0.009400
vn -0.675871 -0.736960 -0.009400
vn -0.009448 -0.999868 -0.013209
vn -0.996530 -0.082118 0.013566
vn -0.996530 -0.082118 -0.013566
vn -0.009731 -0.082368 0.996555
vn -0.006728 -0.737009 0.675849
vn 0.006728 -0.737009 0.675849
vn 0.009731 -0.082368 0.996555
vn 0.009448 -0.999868 0.013209
vn -0.705913 -0.058152 0.705908
vn -0.705913 0.058152 0.705908
vn -0.996530 0.082118 0.013566
vn -0.009731 0.082368 0.996555
vn 0.996530 -0.082120 0.013566
vn 0.675865 -0.736965 0.009400
vn 0.675865 -0.736966 -0.009400
vn 0.996530 -0.082120 -0.013566
vn 0.009448 -0.999868 -0.013209
vn 0.705907 -0.058154 0.705913
vn 0.705907 0.058154 0.705913
vn 0.009731 0.082368 0.996555
vn 0.996530 0.082120 0.013566
vn -0.675871 0.736960 0.009400
vn -0.675871 0.736960 -0.009400
vn -0.996530 0.082118 -0.013566
vn -0.009448 0.999868 0.013209
vn -0.009448 0.999868 -0.013209
vn -0.006728 0.737009 0.675849
vn 0.006728 0.737009 0.675849
vn 0.009448 0.999868 0.013209
vn 0.675865 0.736966 0.009400
vn 0.675865 0.736966 -0.009400
vn 0.009448 0.999868 -0.013209
vn 0.996530 0.082120 -0.013566
vn -0.705914 0.058153 -0.705907
vn -0.705914 -0.058153 -0.705907
vn -0.009731 0.082369 -0.996554
vn -0.009731 -0.082369 -0.996554
vn -0.006728 0.737011 -0.675847
vn 0.006728 0.737011 -0.675847
vn 0.009731 0.082369 -0.996554
vn 0.705909 0.058154 -0.705912
vn 0.705908 -0.058154 -0.705912
vn 0.009731 -0.082369 -0.996554
vn -0.006728 -0.737011 -0.675847
vn 0.006728 -0.737011 -0.675847
vn -0.559307 -0.611849 0.559300
vn 0.559297 -0.611856 0.559303
vn -0.559307 0.611849 0.559300
vn 0.559297 0.611855 0.559303
vn -0.559308 0.611850 -0.559298
vn 0.559297 0.611858 -0.559300
vn -0.559309 -0.611850 -0.559297
vn 0.559298 -0.611858 -0.559300
vn -0.659903 -0.260816 0.704630
vn 0.079599 -0.537452 0.839529
vn 0.000000 -0.159033 0.987273
vn -0.683027 -0.260607 0.682318
vn -0.683027 -0.260607 -0.682318
vn 0.000000 -0.159033 -0.987273
vn 0.079599 -0.537452 -0.839529
vn -0.659903 -0.260816 -0.704630
vn -0.456964 -0.749938 -0.478307
vn 0.456964 -0.749938 -0.478307
vn 0.456963 -0.749938 0.478307
vn -0.456964 -0.749938 0.478307
vn 0.852002 -0.508431 0.124862
vn 0.659903 -0.260817 -0.704630
vn 0.683027 -0.260608 -0.682318
vn 0.976515 -0.215450 0.000000
vn -0.852002 -0.508431 0.124862
vn -0.976515 -0.215450 0.000000
vn -0.079599 -0.537452 0.839529
vn 0.659903 -0.260817 0.704630
vn 0.683027 -0.260608 0.682318
vn 0.000000 -0.159033 0.987273
vn -0.079599 -0.537452 -0.839529
vn 0.000000 -0.159033 -0.987273
vn -0.456964 -0.749938 0.478307
vn -0.456964 -0.749938 -0.478306
vn 0.456964 -0.749938 -0.478307
vn 0.456965 -0.749937 0.478307
vn 0.079337 -0.993453 0.082198
vn -0.079337 -0.993453 0.082198
vn -0.852002 -0.508431 -0.124862
vn -0.976515 -0.215450 0.000000
vn 0.852002 -0.508431 -0.124862
vn 0.976515 -0.215451 0.000000
vn -0.456964 -0.749938 0.478306
vn -0.456964 -0.749938 -0.478307
vn 0.456965 -0.749937 -0.478307
vn 0.456965 -0.749937 0.478307
vn 0.079337 -0.993453 -0.082198
vn -0.079337 -0.993453 -0.082198
vn -0.456964 -0.749938 -0.478307
vn 0.456963 -0.749938 -0.478307
vn 0.456963 -0.749938 0.478307
vn -0.456964 -0.749938 0.478307
vn -0.999387 0.034108 0.007863
vn -0.677068 0.735885 0.007213
vn -0.677068 0.735885 -0.007213
vn -0.999387 0.034108 -0.007863
vn -0.010114 0.999916 0.008088
vn -0.010114 0.999916 -0.008088
vn 0.010114 0.999916 0.008088
vn 0.677062 0.735891 0.007213
vn 0.677062 0.735891 -0.007213
vn 0.010114 0.999916 -0.008088
vn 0.999387 0.034109 0.007863
vn 0.999387 0.034109 -0.007863
vn 0.999814 -0.017080 0.008914
vn 0.999814 -0.017080 -0.008914
vn -0.999814 -0.017080 -0.008914
vn -0.999814 -0.017080 0.008914
vn 0.999425 -0.032316 0.010244
vn 0.999425 -0.032316 -0.010244
vn 0.675715 -0.737036 -0.013715
vn 0.675715 -0.737036 0.013715
vn 0.009559 -0.999904 -0.010010
vn 0.009559 -0.999904 0.010010
vn -0.009559 -0.999904 0.010010
vn -0.009559 -0.999904 -0.010010
vn -0.675710 -0.737040 -0.013715
vn -0.675710 -0.737040 0.013715
vn -0.999425 -0.032316 -0.010244
vn -0.999425 -0.032316 0.010244
vn -0.999824 -0.016466 0.008954
vn -0.999824 -0.016466 -0.008954
vn 0.999824 -0.016466 -0.008954
vn 0.999824 -0.016466 0.008954
s 1
g desk_low
usemtl lambert2SG
f 2/97/1 1/98/2 37/99/3 42/100/4
f 1/1/2 6/2/5 38/3/6 37/4/3
f 4/141/7 3/101/8 11/107/9 10/142/10
f 3/101/8 2/97/1 12/106/11 11/107/9
f 6/2/5 5/5/12 15/11/13 14/7/14
f 5/143/12 4/141/7 16/146/15 15/147/13
f 8/17/16 7/18/17 43/19/18 48/20/19
f 7/109/17 12/106/11 44/105/20 43/110/18
f 10/142/10 9/144/21 23/148/22 22/145/23
f 9/21/21 8/17/16 24/26/24 23/27/22
f 14/7/14 13/12/25 27/13/26 26/8/27
f 13/12/25 18/113/28 28/114/29 27/13/26
f 18/113/28 17/115/30 21/119/31 20/116/32
f 17/115/30 16/146/15 22/145/23 21/119/31
f 20/116/32 19/29/33 35/30/34 34/117/35
f 19/29/33 24/26/24 36/25/36 35/30/34
f 26/8/27 25/14/37 39/9/38 38/3/6
f 25/149/37 30/150/39 40/151/40 39/152/38
f 30/150/39 29/118/41 33/120/42 32/153/43
f 29/118/41 28/114/29 34/117/35 33/120/42
f 32/153/43 31/157/44 47/158/45 46/154/46
f 31/28/44 36/25/36 48/20/19 47/23/45
f 42/100/4 41/103/47 45/108/48 44/105/20
f 41/155/47 40/151/40 46/154/46 45/159/48
f 4/141/7 10/142/10 22/145/23 16/146/15
f 18/113/28 20/116/32 34/117/35 28/114/29
f 30/150/39 32/153/43 46/154/46 40/151/40
f 42/100/4 44/105/20 12/106/11 2/97/1
f 8/17/16 48/20/19 36/25/36 24/26/24
f 38/3/6 6/2/5 14/7/14 26/8/27
f 5/5/12 6/2/5 1/1/2 49/6/49
f 1/98/2 2/97/1 3/101/8 49/102/49
f 3/101/8 4/141/7 5/143/12 49/102/49
f 11/107/9 12/106/11 7/109/17 50/111/50
f 7/18/17 8/17/16 9/21/21 50/22/50
f 9/144/21 10/142/10 11/107/9 50/111/50
f 17/115/30 18/113/28 13/12/25 51/15/51
f 13/12/25 14/7/14 15/11/13 51/15/51
f 15/147/13 16/146/15 17/115/30 51/15/51
f 23/27/22 24/26/24 19/29/33 52/31/52
f 19/29/33 20/116/32 21/119/31 52/31/52
f 21/119/31 22/145/23 23/148/22 52/31/52
f 29/118/41 30/150/39 25/149/37 53/16/53
f 25/14/37 26/8/27 27/13/26 53/16/53
f 27/13/26 28/114/29 29/118/41 53/16/53
f 35/30/34 36/25/36 31/28/44 54/32/54
f 31/157/44 32/153/43 33/120/42 54/32/54
f 33/120/42 34/117/35 35/30/34 54/32/54
f 41/103/47 42/100/4 37/99/3 55/104/55
f 37/4/3 38/3/6 39/9/38 55/10/55
f 39/152/38 40/151/40 41/155/47 55/156/55
f 47/23/45 48/20/19 43/19/18 56/24/56
f 43/110/18 44/105/20 45/108/48 56/112/56
f 45/159/48 46/154/46 47/158/45 56/160/56
s 4
f 57/161/57 69/162/58 70/163/59 59/164/60
f 61/169/61 71/170/62 72/171/63 63/172/64
f 85/49/65 86/60/66 87/59/67 88/208/68
f 82/33/69 64/34/70 62/35/71 81/36/72
f 63/45/64 79/46/73 80/47/74 61/48/61
f 65/165/75 58/167/76 60/168/77 66/166/78
f 68/174/79 67/173/80 62/175/71 64/176/70
f 90/64/81 89/63/82 91/205/83 92/37/84
f 69/162/58 65/165/75 66/166/78 70/163/59
f 72/171/63 71/170/62 67/173/80 68/174/79
f 84/121/85 72/122/63 68/123/79 83/124/86
f 73/51/87 57/53/57 59/54/60 74/52/88
f 58/41/76 76/39/89 75/40/90 60/42/77
f 94/68/91 93/67/92 95/203/93 96/43/94
f 69/127/58 78/125/95 77/126/96 65/128/75
f 98/55/97 97/72/98 99/71/99 100/202/100
f 79/46/73 73/51/87 74/52/88 80/47/74
f 76/39/89 82/33/69 81/36/72 75/40/90
f 77/126/96 83/124/86 82/33/69 76/39/89
f 78/125/95 84/121/85 83/124/86 77/126/96
f 79/46/73 84/121/85 78/125/95 73/51/87
f 63/172/64 72/171/63 86/60/66 85/49/65
f 72/57/63 84/58/85 87/59/67 86/60/66
f 84/177/85 79/178/73 88/208/68 87/59/67
f 79/46/73 63/45/64 85/207/65 88/50/68
f 83/61/86 68/62/79 89/63/82 90/64/81
f 68/174/79 64/176/70 91/205/83 89/63/82
f 64/34/70 82/33/69 92/206/84 91/38/83
f 82/179/69 83/180/86 90/64/81 92/37/84
f 65/65/75 77/66/96 93/67/92 94/68/91
f 77/181/96 76/182/89 95/203/93 93/67/92
f 76/39/89 58/41/76 96/204/94 95/44/93
f 58/167/76 65/165/75 94/68/91 96/43/94
f 73/183/87 78/184/95 97/72/98 98/55/97
f 78/69/95 69/70/58 99/71/99 97/72/98
f 69/162/58 57/161/57 100/202/100 99/71/99
f 57/53/57 73/51/87 98/201/97 100/56/100
s 11
f 117/73/101 118/74/102 119/75/103 120/76/104
f 118/74/102 121/129/105 122/130/106 119/75/103
f 123/131/107 124/79/108 125/82/109 126/132/110
f 124/79/108 127/80/111 128/81/112 125/82/109
f 121/129/105 123/131/107 126/132/110 122/130/106
f 130/83/113 129/84/114 128/81/112 127/80/111
f 132/77/115 131/78/116 117/73/101 120/76/104
f 101/85/117 104/86/118 103/87/119 102/88/120
f 102/88/120 103/87/119 106/133/121 105/134/122
f 107/136/123 110/135/124 109/92/125 108/91/126
f 108/91/126 109/92/125 112/93/127 111/94/128
f 105/134/122 106/133/121 110/135/124 107/136/123
f 113/95/129 111/94/128 112/93/127 114/96/130
f 115/89/131 104/86/118 101/85/117 116/90/132
f 101/185/117 102/186/120 118/74/102 117/73/101
f 103/193/119 104/194/118 120/76/104 119/75/103
f 102/186/120 105/187/122 121/129/105 118/74/102
f 106/196/121 103/193/119 119/75/103 122/130/106
f 107/189/123 108/190/126 124/79/108 123/131/107
f 109/198/125 110/197/124 126/132/110 125/82/109
f 108/190/126 111/191/128 127/80/111 124/79/108
f 112/199/127 109/198/125 125/82/109 128/81/112
f 105/187/122 107/189/123 123/131/107 121/129/105
f 110/197/124 106/196/121 122/130/106 126/132/110
f 113/137/129 114/138/130 129/84/114 130/83/113
f 114/200/130 112/199/127 128/81/112 129/84/114
f 111/191/128 113/192/129 130/83/113 127/80/111
f 115/139/131 116/140/132 131/78/116 132/77/115
f 116/188/132 101/185/117 117/73/101 131/78/116
f 104/194/118 115/195/131 132/77/115 120/76/104
