# This file uses centimeters as units for non-parametric coordinates.

mtllib desk_low.mtl
g default
v -108.673981 68.160988 73.408890
v -103.336975 66.134232 73.408890
v -103.336975 68.160988 78.745972
v -103.336975 73.053993 80.956635
v -108.673981 73.053993 78.745972
v -110.884674 73.053993 73.408890
v 108.673950 68.160988 73.408890
v 110.884674 73.053993 73.408890
v 108.673950 73.053993 78.745972
v 103.336853 73.053993 80.956635
v 103.336853 68.160988 78.745972
v 103.336853 66.134232 73.408890
v -108.673981 99.596970 73.408890
v -110.884674 94.703964 73.408890
v -108.673981 94.703964 78.745972
v -103.336975 94.703964 80.956635
v -103.336975 99.596970 78.745972
v -103.336975 101.623718 73.408890
v 108.673950 99.596970 73.408890
v 103.336853 101.623718 73.408890
v 103.336853 99.596970 78.745972
v 103.336853 94.703964 80.956635
v 108.673950 94.703964 78.745972
v 110.884674 94.703964 73.408890
v -108.673981 94.703964 -78.745941
v -110.884674 94.703964 -73.408844
v -108.673981 99.596970 -73.408844
v -103.336975 101.623718 -73.408844
v -103.336975 99.596970 -78.745941
v -103.336975 94.703964 -80.956635
v 108.673950 94.703964 -78.745941
v 103.336853 94.703964 -80.956635
v 103.336853 99.596970 -78.745941
v 103.336853 101.623718 -73.408844
v 108.673950 99.596970 -73.408844
v 110.884674 94.703964 -73.408844
v -108.673981 68.160988 -73.408844
v -110.884674 73.053993 -73.408844
v -108.673981 73.053993 -78.745941
v -103.336975 73.053993 -80.956635
v -103.336975 68.160988 -78.745941
v -103.336975 66.134232 -73.408844
v 108.673950 68.160988 -73.408844
v 103.336853 66.134232 -73.408844
v 103.336853 68.160988 -78.745941
v 103.336853 73.053993 -80.956635
v 108.673950 73.053993 -78.745941
v 110.884674 73.053993 -73.408844
v -107.693146 69.060265 77.765076
v 107.693024 69.060265 77.765076
v -107.693146 98.697685 77.765076
v 107.693024 98.697685 77.765076
v -107.693146 98.697685 -77.765045
v 107.693024 98.697685 -77.765045
v -107.693146 69.060265 -77.765045
v 107.693024 69.060265 -77.765045
v -87.598816 22.616653 63.955658
v 87.598663 22.616653 63.955658
v -98.865509 73.682281 72.181458
v 98.865387 73.682281 72.181458
v -98.865509 73.682281 -72.181458
v 98.865387 73.682281 -72.181458
v -87.598816 22.616653 -63.955658
v 87.598663 22.616653 -63.955658
v 43.170258 22.616653 63.955658
v 48.722717 73.682281 72.181458
v 48.722717 73.682281 -72.181458
v 43.170258 22.616653 -63.955658
v -43.170349 22.616653 63.955658
v -48.722809 73.682281 72.181458
v -48.722809 73.682281 -72.181458
v -43.170349 22.616653 -63.955658
v -87.598816 22.616653 21.318542
v -98.865509 73.682281 24.060486
v 98.865387 73.682281 24.060486
v 87.598663 22.616653 21.318542
v 43.170258 22.616653 21.318542
v -43.170349 22.616653 21.318542
v -87.598816 22.616653 -21.318542
v -98.865509 73.682281 -24.060486
v 98.865387 73.682281 -24.060486
v 87.598663 22.616653 -21.318542
v 43.170258 22.616653 -21.318542
v -43.170349 22.616653 -21.318542
v -83.076080 0.000004 -59.615234
v -47.693115 0.000000 -59.615234
v -47.693115 0.000000 -25.658936
v -83.076080 0.000000 -25.658936
v 47.693024 0.000000 -59.615234
v 47.693024 0.000000 -25.658936
v 83.075958 0.000004 -59.615234
v 83.075958 0.000000 -25.658936
v 47.693024 0.000000 25.658936
v 47.693024 0.000000 59.615234
v 83.075958 0.000000 25.658936
v 83.075958 0.000004 59.615234
v -47.693115 0.000000 25.658936
v -83.076080 0.000000 25.658936
v -47.693115 0.000000 59.615234
v -83.076080 0.000004 59.615234
v -110.884674 94.703964 59.698853
v -108.673981 99.596970 59.698853
v -108.673981 99.596970 -59.698792
v -110.884674 94.703964 -59.698792
v -103.336975 101.623718 59.698853
v -103.336975 101.623718 -59.698792
v 103.336853 101.623718 59.698853
v 108.673950 99.596970 59.698853
v 108.673950 99.596970 -59.698792
v 103.336853 101.623718 -59.698792
v 110.884674 94.703964 59.698853
v 110.884674 94.703964 -59.698792
v 110.884674 31.226616 59.698853
v 110.884674 31.226616 -59.698792
v -110.884674 31.226616 -59.698792
v -110.884674 31.226616 59.698853
v -111.972687 94.916740 59.698853
v -109.564270 100.544922 59.698853
v -109.564270 100.544922 -59.698792
v -111.972687 94.916740 -59.698792
v -103.513062 102.700211 59.698853
v -103.513062 102.700211 -59.698792
v 103.512939 102.700203 59.698853
v 109.564240 100.544930 59.698853
v 109.564240 100.544930 -59.698792
v 103.512939 102.700203 -59.698792
v 111.972687 94.916748 59.698853
v 111.972687 94.916748 -59.698792
v 111.930084 31.225279 -59.698792
v 111.930084 31.225279 59.698853
v -111.930084 31.225279 59.698853
v -111.930084 31.225279 -59.698792
vt 0.003964 0.318656
vt 0.012574 0.318713
vt 0.012518 0.555021
vt 0.003906 0.555067
vt 0.012393 0.309434
vt 0.005379 0.311019
vt 0.047317 0.318792
vt 0.047252 0.554966
vt 0.012304 0.564199
vt 0.005298 0.562663
vt 0.048163 0.309558
vt 0.055856 0.318853
vt 0.055794 0.554916
vt 0.048108 0.564299
vt 0.056479 0.310550
vt 0.056435 0.563222
vt 0.449065 0.318724
vt 0.457677 0.318675
vt 0.457673 0.555101
vt 0.449063 0.555047
vt 0.449273 0.309546
vt 0.456280 0.311077
vt 0.449251 0.564326
vt 0.456264 0.562737
vt 0.414320 0.554982
vt 0.414332 0.318792
vt 0.413474 0.309458
vt 0.413474 0.564215
vt 0.405791 0.318845
vt 0.405781 0.554925
vt 0.405150 0.310526
vt 0.405151 0.563219
vt 0.899996 0.282281
vt 0.899995 0.213799
vt 0.983988 0.200585
vt 0.983989 0.277875
vt 0.628158 0.462559
vt 0.862950 0.220771
vt 0.899998 0.350764
vt 0.983991 0.355166
vt 0.899999 0.419246
vt 0.983992 0.432456
vt 0.880394 0.733607
vt 0.862953 0.357736
vt 0.618598 0.213804
vt 0.618599 0.282286
vt 0.534607 0.277884
vt 0.534605 0.200594
vt 0.895017 0.517143
vt 0.655645 0.275314
vt 0.618601 0.350769
vt 0.534608 0.355175
vt 0.618602 0.419251
vt 0.534610 0.432465
vt 0.613527 0.679061
vt 0.655647 0.412279
vt 0.801140 0.524099
vt 0.801151 0.455617
vt 0.838195 0.462594
vt 0.838186 0.517134
vt 0.722036 0.455603
vt 0.722024 0.524086
vt 0.684980 0.517108
vt 0.684989 0.462569
vt 0.786517 0.740576
vt 0.786519 0.672094
vt 0.823564 0.679066
vt 0.823563 0.733606
vt 0.707404 0.672092
vt 0.707402 0.740574
vt 0.670357 0.733602
vt 0.670358 0.679062
vt 0.480687 0.814284
vt 0.470884 0.814277
vt 0.470833 0.622529
vt 0.480631 0.622518
vt 0.582910 0.622411
vt 0.583015 0.814256
vt 0.117768 0.814310
vt 0.107969 0.814322
vt 0.107913 0.622556
vt 0.117716 0.622563
vt 0.005690 0.814429
vt 0.005586 0.622584
vt 0.882381 0.003918
vt 0.882403 0.195691
vt 0.873779 0.195692
vt 0.873757 0.003919
vt 0.984358 0.195679
vt 0.984336 0.003906
vt 0.523465 0.003959
vt 0.523486 0.195732
vt 0.514863 0.195733
vt 0.514841 0.003960
vt 0.412885 0.003971
vt 0.412907 0.195744
vt 0.064790 0.248963
vt 0.055633 0.249122
vt 0.055550 0.013107
vt 0.064706 0.013149
vt 0.064786 0.258079
vt 0.057268 0.257869
vt 0.064667 0.003987
vt 0.057125 0.005565
vt 0.396788 0.013067
vt 0.396847 0.248931
vt 0.396852 0.258049
vt 0.396819 0.003906
vt 0.406001 0.249081
vt 0.405949 0.013016
vt 0.404400 0.257844
vt 0.404362 0.005476
vt 0.064916 0.319037
vt 0.064861 0.554743
vt 0.064791 0.309944
vt 0.396724 0.319023
vt 0.396720 0.554747
vt 0.064728 0.563835
vt 0.396852 0.309930
vt 0.396850 0.563842
vt 0.689959 0.282285
vt 0.689958 0.213803
vt 0.828636 0.213800
vt 0.828637 0.282283
vt 0.689960 0.350768
vt 0.828638 0.350765
vt 0.689962 0.419250
vt 0.828640 0.419247
vt 0.460594 0.814296
vt 0.460548 0.622513
vt 0.128052 0.814327
vt 0.128006 0.622543
vt 0.864609 0.195693
vt 0.864588 0.003920
vt 0.532656 0.195731
vt 0.532634 0.003958
vt 0.004011 0.814431
vt 0.003906 0.622586
vt 0.584590 0.622409
vt 0.584694 0.814254
vt 0.064770 0.266653
vt 0.396865 0.266626
vt 0.055631 0.265875
vt 0.406149 0.265862
vt 0.396892 0.301367
vt 0.064755 0.301383
vt 0.055373 0.302181
vt 0.406129 0.302149
vt 0.055448 0.571553
vt 0.064682 0.572398
vt 0.064623 0.607151
vt 0.055344 0.607341
vt 0.396892 0.572406
vt 0.396950 0.607152
vt 0.064583 0.615765
vt 0.056941 0.614358
vt 0.406225 0.571550
vt 0.406128 0.607366
vt 0.396986 0.615768
vt 0.404587 0.614376
vt 0.606260 0.770589
vt 0.677620 0.770591
vt 0.668700 0.853668
vt 0.588162 0.853666
vt 0.816298 0.770594
vt 0.825214 0.853672
vt 0.887657 0.770596
vt 0.905751 0.853674
vt 0.920358 0.637214
vt 0.839820 0.637201
vt 0.830916 0.554122
vt 0.902276 0.554134
vt 0.683306 0.637174
vt 0.692238 0.554098
vt 0.602768 0.637161
vt 0.620878 0.554087
vt 0.830937 0.425604
vt 0.902297 0.425616
vt 0.620900 0.425569
vt 0.692259 0.425581
vt 0.816301 0.642077
vt 0.887661 0.642078
vt 0.606264 0.642071
vt 0.677623 0.642073
vt 0.480950 0.816023
vt 0.470878 0.816206
vt 0.460334 0.816023
vt 0.583014 0.815935
vt 0.128311 0.816054
vt 0.117774 0.816239
vt 0.107710 0.816061
vt 0.005695 0.816108
vt 0.470826 0.620600
vt 0.480890 0.620779
vt 0.582905 0.620731
vt 0.460289 0.620786
vt 0.128267 0.620816
vt 0.117723 0.620633
vt 0.107650 0.620817
vt 0.005586 0.620905
vt 0.655646 0.357740
vt 0.613525 0.733600
vt 0.880395 0.679067
vt 0.862954 0.412275
vt 0.628149 0.517099
vt 0.862951 0.275310
vt 0.655644 0.220775
vt 0.895026 0.462604
vn -0.009448 -0.999868 0.013209
vn -0.354056 -0.935187 0.008312
vn -0.354056 -0.935187 -0.008312
vn -0.009448 -0.999868 -0.013209
vn -0.911751 -0.410642 0.009080
vn -0.996530 -0.082118 0.013566
vn -0.996530 -0.082118 -0.013566
vn -0.911751 -0.410642 -0.009080
vn -0.009731 -0.082368 0.996555
vn -0.006500 -0.410950 0.911635
vn 0.006500 -0.410950 0.911635
vn 0.009731 -0.082368 0.996555
vn -0.005950 -0.935103 0.354328
vn 0.009448 -0.999868 0.013209
vn 0.005950 -0.935102 0.354328
vn -0.924807 -0.053605 0.376642
vn -0.924807 0.053605 0.376642
vn -0.996530 0.082118 0.013566
vn -0.376643 -0.053607 0.924806
vn -0.009731 0.082368 0.996555
vn -0.376644 0.053607 0.924806
vn 0.996530 -0.082120 0.013566
vn 0.911748 -0.410651 0.009080
vn 0.911748 -0.410651 -0.009080
vn 0.996530 -0.082120 -0.013566
vn 0.354051 -0.935189 0.008312
vn 0.009448 -0.999868 -0.013209
vn 0.354051 -0.935189 -0.008312
vn 0.376638 -0.053607 0.924808
vn 0.376638 0.053607 0.924808
vn 0.009731 0.082368 0.996555
vn 0.924804 -0.053608 0.376648
vn 0.996530 0.082120 0.013566
vn 0.924804 0.053608 0.376648
vn -0.911751 0.410642 0.009080
vn -0.911751 0.410642 -0.009080
vn -0.996530 0.082118 -0.013566
vn -0.354055 0.935188 0.008312
vn -0.009448 0.999868 0.013209
vn -0.009448 0.999868 -0.013209
vn -0.354055 0.935188 -0.008312
vn -0.005950 0.935103 0.354325
vn 0.005950 0.935103 0.354326
vn 0.009448 0.999868 0.013209
vn -0.006500 0.410950 0.911635
vn 0.006500 0.410950 0.911635
vn 0.354050 0.935189 0.008312
vn 0.354050 0.935189 -0.008312
vn 0.009448 0.999868 -0.013209
vn 0.911748 0.410651 0.009080
vn 0.996530 0.082120 -0.013566
vn 0.911748 0.410651 -0.009080
vn -0.924807 0.053606 -0.376642
vn -0.924807 -0.053606 -0.376642
vn -0.376647 0.053607 -0.924805
vn -0.009731 0.082369 -0.996554
vn -0.009731 -0.082369 -0.996554
vn -0.376648 -0.053607 -0.924804
vn -0.006500 0.410954 -0.911633
vn 0.006500 0.410954 -0.911633
vn 0.009731 0.082369 -0.996554
vn -0.005950 0.935104 -0.354325
vn 0.005950 0.935104 -0.354325
vn 0.376642 0.053607 -0.924807
vn 0.376642 -0.053607 -0.924806
vn 0.009731 -0.082369 -0.996554
vn 0.924804 0.053608 -0.376647
vn 0.924804 -0.053608 -0.376648
vn -0.005950 -0.935103 -0.354327
vn 0.005950 -0.935103 -0.354327
vn -0.006501 -0.410955 -0.911633
vn 0.006501 -0.410955 -0.911632
vn -0.879142 -0.351274 0.322049
vn -0.303370 -0.903292 0.303366
vn -0.322052 -0.351277 0.879140
vn 0.303368 -0.903292 0.303368
vn 0.879133 -0.351289 0.322058
vn 0.322048 -0.351283 0.879139
vn -0.303371 0.903291 0.303367
vn -0.879142 0.351273 0.322050
vn -0.322054 0.351277 0.879139
vn 0.879133 0.351290 0.322059
vn 0.303369 0.903291 0.303370
vn 0.322050 0.351283 0.879138
vn -0.322057 0.351281 -0.879137
vn -0.879142 0.351276 -0.322047
vn -0.303370 0.903291 -0.303367
vn 0.879134 0.351288 -0.322057
vn 0.322053 0.351287 -0.879136
vn 0.303365 0.903293 -0.303368
vn -0.303373 -0.903290 -0.303367
vn -0.879142 -0.351276 -0.322049
vn -0.322060 -0.351280 -0.879136
vn 0.879133 -0.351289 -0.322058
vn 0.303368 -0.903292 -0.303366
vn 0.322056 -0.351286 -0.879135
vn 0.000000 -0.159033 0.987273
vn 0.000000 -0.159033 0.987273
vn 0.000000 -0.159033 0.987273
vn 0.000000 -0.159033 0.987273
vn 0.000000 -0.159033 -0.987273
vn 0.000000 -0.159033 -0.987273
vn 0.000000 -0.159033 -0.987273
vn 0.000000 -0.159033 -0.987273
vn -0.000000 -1.000000 -0.000000
vn -0.000000 -1.000000 -0.000000
vn -0.000000 -1.000000 -0.000000
vn -0.000000 -1.000000 -0.000000
vn 0.976515 -0.215450 0.000000
vn 0.976515 -0.215451 0.000000
vn 0.976515 -0.215451 0.000000
vn 0.976515 -0.215450 0.000000
vn -0.976515 -0.215450 0.000000
vn -0.976515 -0.215450 0.000000
vn -0.976515 -0.215450 0.000000
vn -0.976515 -0.215450 0.000000
vn 0.000000 -0.159033 0.987273
vn 0.000000 -0.159033 0.987273
vn 0.000000 -0.159033 0.987273
vn 0.000000 -0.159033 0.987273
vn 0.000000 -0.159033 -0.987273
vn 0.000000 -0.159033 -0.987273
vn 0.000000 -0.159033 -0.987273
vn 0.000000 -0.159033 -0.987273
vn 0.000000 -1.000000 -0.000000
vn 0.000000 -1.000000 -0.000000
vn 0.000000 -1.000000 -0.000000
vn 0.000000 -1.000000 -0.000000
vn 0.000000 -1.000000 0.000000
vn 0.000000 -1.000000 0.000000
vn 0.000000 -1.000000 0.000000
vn 0.000000 -1.000000 0.000000
vn -0.976515 -0.215450 0.000000
vn -0.976515 -0.215450 0.000000
vn -0.976515 -0.215450 0.000000
vn -0.976515 -0.215450 0.000000
vn 0.976515 -0.215451 0.000000
vn 0.976515 -0.215451 0.000000
vn 0.976515 -0.215451 0.000000
vn 0.976515 -0.215451 0.000000
vn 0.000000 -1.000000 0.000000
vn 0.000000 -1.000000 0.000000
vn 0.000000 -1.000000 0.000000
vn 0.000000 -1.000000 0.000000
vn 0.000000 -1.000000 0.000000
vn 0.000000 -1.000000 0.000000
vn 0.000000 -1.000000 0.000000
vn 0.000000 -1.000000 0.000000
vn -0.000000 -1.000000 0.000000
vn -0.000000 -1.000000 0.000000
vn -0.000000 -1.000000 0.000000
vn -0.000000 -1.000000 0.000000
vn 0.000000 -1.000000 0.000000
vn 0.000000 -1.000000 0.000000
vn 0.000000 -1.000000 0.000000
vn 0.000000 -1.000000 0.000000
vn 0.000001 -0.188473 -0.982078
vn 0.000001 -0.188473 -0.982078
vn 0.000001 -0.188473 -0.982078
vn 0.000001 -0.188473 -0.982078
vn 0.980585 -0.196093 0.000000
vn 0.980585 -0.196093 0.000000
vn 0.980585 -0.196093 0.000000
vn 0.980585 -0.196093 0.000000
vn 0.000000 -0.188472 0.982079
vn 0.000000 -0.188472 0.982079
vn 0.000000 -0.188472 0.982079
vn 0.000000 -0.188472 0.982079
vn -0.980586 -0.196092 -0.000000
vn -0.980586 -0.196091 -0.000000
vn -0.980586 -0.196091 -0.000000
vn -0.980586 -0.196091 -0.000000
vn -0.980585 -0.196094 0.000000
vn -0.980585 -0.196094 0.000000
vn -0.980585 -0.196094 0.000000
vn -0.980585 -0.196094 0.000000
vn -0.000001 -0.188473 -0.982078
vn -0.000001 -0.188473 -0.982078
vn -0.000001 -0.188473 -0.982078
vn -0.000001 -0.188473 -0.982078
vn 0.980586 -0.196090 -0.000000
vn 0.980586 -0.196090 -0.000000
vn 0.980586 -0.196090 -0.000000
vn 0.980586 -0.196090 -0.000000
vn 0.000000 -0.188472 0.982079
vn 0.000000 -0.188472 0.982079
vn 0.000000 -0.188472 0.982079
vn 0.000000 -0.188472 0.982079
vn -0.980585 -0.196094 0.000000
vn -0.980585 -0.196094 0.000000
vn -0.980585 -0.196094 0.000000
vn -0.980585 -0.196094 0.000000
vn 0.000000 -0.188472 -0.982079
vn 0.000000 -0.188472 -0.982079
vn 0.000000 -0.188472 -0.982079
vn 0.000000 -0.188472 -0.982079
vn 0.980586 -0.196089 0.000000
vn 0.980586 -0.196089 0.000000
vn 0.980586 -0.196089 0.000000
vn 0.980586 -0.196089 0.000000
vn 0.000000 -0.188473 0.982078
vn 0.000000 -0.188473 0.982078
vn 0.000000 -0.188473 0.982078
vn 0.000000 -0.188473 0.982078
vn 0.000000 -0.188472 -0.982079
vn 0.000000 -0.188472 -0.982079
vn 0.000000 -0.188472 -0.982079
vn 0.000000 -0.188472 -0.982079
vn 0.980585 -0.196093 0.000000
vn 0.980585 -0.196093 0.000000
vn 0.980585 -0.196093 0.000000
vn 0.980585 -0.196093 0.000000
vn 0.000000 -0.188473 0.982078
vn 0.000000 -0.188473 0.982078
vn 0.000000 -0.188473 0.982078
vn 0.000000 -0.188473 0.982078
vn -0.980586 -0.196091 0.000000
vn -0.980586 -0.196091 0.000000
vn -0.980586 -0.196091 0.000000
vn -0.980586 -0.196091 0.000000
vn -0.999418 0.034109 0.000000
vn -0.919362 0.393413 0.000000
vn -0.919362 0.393413 0.000000
vn -0.999418 0.034109 0.000000
vn -0.335528 0.942030 0.000000
vn -0.010115 0.999949 0.000000
vn -0.010115 0.999949 0.000000
vn -0.335528 0.942030 0.000000
vn 0.010115 0.999949 0.000000
vn 0.335521 0.942033 0.000000
vn 0.335521 0.942033 0.000000
vn 0.010115 0.999949 0.000000
vn 0.919360 0.393418 0.000000
vn 0.999418 0.034110 0.000000
vn 0.999418 0.034110 0.000000
vn 0.919360 0.393418 0.000000
vn 1.000000 -0.000669 0.000000
vn 1.000000 -0.000669 0.000000
vn -1.000000 -0.000669 0.000000
vn -1.000000 -0.000669 0.000000
vn 0.999478 -0.032317 0.000000
vn 0.999478 -0.032317 0.000000
vn 0.911303 -0.411736 0.000000
vn 0.911303 -0.411736 0.000000
vn 0.355016 -0.934860 0.000000
vn 0.355016 -0.934860 0.000000
vn 0.009559 -0.999954 0.000000
vn 0.009559 -0.999954 0.000000
vn -0.009559 -0.999954 0.000000
vn -0.009559 -0.999954 0.000000
vn -0.355013 -0.934862 0.000000
vn -0.355013 -0.934862 0.000000
vn -0.911301 -0.411741 0.000000
vn -0.911301 -0.411741 0.000000
vn -0.999478 -0.032318 0.000000
vn -0.999478 -0.032318 0.000000
vn -1.000000 0.000000 0.000000
vn -1.000000 0.000000 0.000000
vn 1.000000 0.000000 0.000000
vn 1.000000 0.000000 0.000000
vn 0.000011 0.000000 1.000000
vn 0.000005 0.000000 1.000000
vn 0.000005 0.000000 1.000000
vn 0.000011 0.000000 1.000000
vn -0.000002 0.000000 -1.000000
vn -0.000004 0.000000 -1.000000
vn -0.000004 0.000000 -1.000000
vn -0.000002 0.000000 -1.000000
vn 0.000000 0.000000 1.000000
vn 0.000000 0.000000 1.000000
vn 0.000000 0.000000 -1.000000
vn 0.000000 0.000000 -1.000000
vn -0.000000 0.000000 1.000000
vn -0.000009 0.000000 1.000000
vn -0.000009 0.000000 1.000000
vn -0.000000 0.000000 1.000000
vn -0.000007 0.000000 -1.000000
vn -0.000000 0.000000 -1.000000
vn -0.000000 0.000000 -1.000000
vn -0.000007 0.000000 -1.000000
vn 0.000003 0.000000 1.000000
vn 0.000003 0.000000 1.000000
vn 0.000028 0.000000 -1.000000
vn 0.000029 0.000000 -1.000000
vn -0.001279 -0.999999 0.000000
vn -0.001279 -0.999999 0.000000
vn -0.001279 -0.999999 0.000000
vn -0.001279 -0.999999 0.000000
vn 0.000032 0.000000 -1.000000
vn 0.000032 0.000000 -1.000000
vn 0.000005 0.000000 1.000000
vn 0.000005 0.000000 1.000000
vn 0.001279 -0.999999 0.000000
vn 0.001279 -0.999999 0.000000
vn 0.001279 -0.999999 0.000000
vn 0.001279 -0.999999 0.000000
vn 0.000011 0.000000 1.000000
vn 0.000011 0.000000 1.000000
vn -0.000003 0.000000 -1.000000
vn -0.000003 0.000000 -1.000000
s 1
g polySurface20
usemtl lambert2SG
f 2/97/1 1/98/2 37/99/3 42/100/4
s 2
f 1/1/5 6/2/6 38/3/7 37/4/8
s 3
f 4/141/9 3/101/10 11/107/11 10/142/12
s 1
f 3/101/13 2/97/1 12/106/14 11/107/15
s 2
f 6/2/6 5/5/16 15/11/17 14/7/18
s 3
f 5/143/19 4/141/9 16/146/20 15/147/21
s 4
f 8/17/22 7/18/23 43/19/24 48/20/25
s 1
f 7/109/26 12/106/14 44/105/27 43/110/28
s 3
f 10/142/12 9/144/29 23/148/30 22/145/31
s 4
f 9/21/32 8/17/22 24/26/33 23/27/34
s 2
f 14/7/18 13/12/35 27/13/36 26/8/37
s 5
f 13/12/38 18/113/39 28/114/40 27/13/41
f 18/113/39 17/115/42 21/119/43 20/116/44
s 3
f 17/115/45 16/146/20 22/145/31 21/119/46
s 5
f 20/116/44 19/29/47 35/30/48 34/117/49
s 4
f 19/29/50 24/26/33 36/25/51 35/30/52
s 2
f 26/8/37 25/14/53 39/9/54 38/3/7
s 6
f 25/149/55 30/150/56 40/151/57 39/152/58
f 30/150/56 29/118/59 33/120/60 32/153/61
s 5
f 29/118/62 28/114/40 34/117/49 33/120/63
s 6
f 32/153/61 31/157/64 47/158/65 46/154/66
s 4
f 31/28/67 36/25/51 48/20/25 47/23/68
s 1
f 42/100/4 41/103/69 45/108/70 44/105/27
s 6
f 41/155/71 40/151/57 46/154/66 45/159/72
s 3
f 4/141/9 10/142/12 22/145/31 16/146/20
s 5
f 18/113/39 20/116/44 34/117/49 28/114/40
s 6
f 30/150/56 32/153/61 46/154/66 40/151/57
s 1
f 42/100/4 44/105/27 12/106/14 2/97/1
s 4
f 8/17/22 48/20/25 36/25/51 24/26/33
s 2
f 38/3/7 6/2/6 14/7/18 26/8/37
f 5/5/16 6/2/6 1/1/5 49/6/73
s 1
f 1/98/2 2/97/1 3/101/13 49/102/74
s 3
f 3/101/10 4/141/9 5/143/19 49/102/75
s 1
f 11/107/15 12/106/14 7/109/26 50/111/76
s 4
f 7/18/23 8/17/22 9/21/32 50/22/77
s 3
f 9/144/29 10/142/12 11/107/11 50/111/78
s 5
f 17/115/42 18/113/39 13/12/38 51/15/79
s 2
f 13/12/35 14/7/18 15/11/17 51/15/80
s 3
f 15/147/21 16/146/20 17/115/45 51/15/81
s 4
f 23/27/34 24/26/33 19/29/50 52/31/82
s 5
f 19/29/47 20/116/44 21/119/43 52/31/83
s 3
f 21/119/46 22/145/31 23/148/30 52/31/84
s 6
f 29/118/59 30/150/56 25/149/55 53/16/85
s 2
f 25/14/53 26/8/37 27/13/36 53/16/86
s 5
f 27/13/41 28/114/40 29/118/62 53/16/87
s 4
f 35/30/52 36/25/51 31/28/67 54/32/88
s 6
f 31/157/64 32/153/61 33/120/60 54/32/89
s 5
f 33/120/63 34/117/49 35/30/48 54/32/90
s 1
f 41/103/69 42/100/4 37/99/3 55/104/91
s 2
f 37/4/8 38/3/7 39/9/54 55/10/92
s 6
f 39/152/58 40/151/57 41/155/71 55/156/93
s 4
f 47/23/68 48/20/25 43/19/24 56/24/94
s 1
f 43/110/28 44/105/27 45/108/70 56/112/95
s 6
f 45/159/72 46/154/66 47/158/65 56/160/96
s 7
f 57/161/97 69/162/98 70/163/99 59/164/100
s 8
f 61/169/101 71/170/102 72/171/103 63/172/104
s off
f 85/49/105 86/60/106 87/59/107 88/208/108
s 9
f 82/33/109 64/34/110 62/35/111 81/36/112
s 10
f 63/45/113 79/46/114 80/47/115 61/48/116
s 7
f 65/165/117 58/167/118 60/168/119 66/166/120
s 8
f 68/174/121 67/173/122 62/175/123 64/176/124
s off
f 90/64/125 89/63/126 91/205/127 92/37/128
s 7
f 69/162/98 65/165/117 66/166/120 70/163/99
s 8
f 72/171/103 71/170/102 67/173/122 68/174/121
s 11
f 84/121/129 72/122/130 68/123/131 83/124/132
s 10
f 73/51/133 57/53/134 59/54/135 74/52/136
s 9
f 58/41/137 76/39/138 75/40/139 60/42/140
s off
f 94/68/141 93/67/142 95/203/143 96/43/144
s 11
f 69/127/145 78/125/146 77/126/147 65/128/148
s off
f 98/55/149 97/72/150 99/71/151 100/202/152
s 10
f 79/46/114 73/51/133 74/52/136 80/47/115
s 9
f 76/39/138 82/33/109 81/36/112 75/40/139
s 11
f 77/126/147 83/124/132 82/33/153 76/39/154
f 78/125/146 84/121/129 83/124/132 77/126/147
f 79/46/155 84/121/129 78/125/146 73/51/156
s off
f 63/172/157 72/171/158 86/60/159 85/49/160
f 72/57/161 84/58/162 87/59/163 86/60/164
f 84/177/165 79/178/166 88/208/167 87/59/168
f 79/46/169 63/45/170 85/207/171 88/50/172
f 83/61/173 68/62/174 89/63/175 90/64/176
f 68/174/177 64/176/178 91/205/179 89/63/180
f 64/34/181 82/33/182 92/206/183 91/38/184
f 82/179/185 83/180/186 90/64/187 92/37/188
f 65/65/189 77/66/190 93/67/191 94/68/192
f 77/181/193 76/182/194 95/203/195 93/67/196
f 76/39/197 58/41/198 96/204/199 95/44/200
f 58/167/201 65/165/202 94/68/203 96/43/204
f 73/183/205 78/184/206 97/72/207 98/55/208
f 78/69/209 69/70/210 99/71/211 97/72/212
f 69/162/213 57/161/214 100/202/215 99/71/216
f 57/53/217 73/51/218 98/201/219 100/56/220
s 12
f 117/73/221 118/74/222 119/75/223 120/76/224
s 13
f 118/74/225 121/129/226 122/130/227 119/75/228
f 123/131/229 124/79/230 125/82/231 126/132/232
s 14
f 124/79/233 127/80/234 128/81/235 125/82/236
s 13
f 121/129/226 123/131/229 126/132/232 122/130/227
s 14
f 130/83/237 129/84/238 128/81/235 127/80/234
s 12
f 132/77/239 131/78/240 117/73/221 120/76/224
s 15
f 101/85/241 104/86/242 103/87/243 102/88/244
s 16
f 102/88/245 103/87/246 106/133/247 105/134/248
f 107/136/249 110/135/250 109/92/251 108/91/252
s 17
f 108/91/253 109/92/254 112/93/255 111/94/256
s 16
f 105/134/248 106/133/247 110/135/250 107/136/249
s 17
f 113/95/257 111/94/256 112/93/255 114/96/258
s 15
f 115/89/259 104/86/242 101/85/241 116/90/260
s 18
f 101/185/261 102/186/262 118/74/263 117/73/264
s 19
f 103/193/265 104/194/266 120/76/267 119/75/268
s 18
f 102/186/262 105/187/269 121/129/270 118/74/263
s 19
f 106/196/271 103/193/265 119/75/268 122/130/272
s 18
f 107/189/273 108/190/274 124/79/275 123/131/276
s 19
f 109/198/277 110/197/278 126/132/279 125/82/280
s 18
f 108/190/274 111/191/281 127/80/282 124/79/275
s 19
f 112/199/283 109/198/277 125/82/280 128/81/284
s 18
f 105/187/269 107/189/273 123/131/276 121/129/270
s 19
f 110/197/278 106/196/271 122/130/272 126/132/279
s off
f 113/137/285 114/138/286 129/84/287 130/83/288
s 19
f 114/200/289 112/199/283 128/81/284 129/84/290
s 18
f 111/191/281 113/192/291 130/83/292 127/80/282
s off
f 115/139/293 116/140/294 131/78/295 132/77/296
s 18
f 116/188/297 101/185/261 117/73/264 131/78/298
s 19
f 104/194/266 115/195/299 132/77/300 120/76/267
