# This file uses centimeters as units for non-parametric coordinates.

mtllib walls.mtl
g default
v 624.826782 0.000000 -544.006348
v -624.826782 0.000000 -544.006348
v -624.826782 0.000000 544.006348
v 624.826782 0.000000 544.006348
v 624.826782 759.042542 -445.639832
v -624.826782 759.042542 -445.639832
v -624.826782 -328.970093 -445.639832
v 624.826782 -328.970093 -445.639832
v -592.362183 -328.970093 431.684875
v -592.362183 -2.566290 431.684875
v -592.362183 -2.566290 557.986389
v -592.362183 -328.970093 557.986389
v -592.362183 -2.566290 179.082123
v -592.362183 -328.970093 179.082123
v -592.362183 -328.970093 -452.424805
v -592.362183 -2.566290 -452.424683
v -592.362183 286.610657 431.684875
v -592.362183 286.610657 557.986389
v -592.362183 286.610657 179.082123
v -592.362183 286.610657 -452.424805
v -592.362183 759.042542 431.684875
v -592.362183 759.042542 557.986389
v -592.362122 323.837524 305.383545
v -592.362122 759.042542 305.383545
v -592.362183 759.042542 179.082123
v -592.362183 759.042542 -452.424805
v 592.362183 -328.970093 431.684875
v 592.362183 -328.970093 557.986389
v 592.362183 -2.566290 557.986389
v 592.362183 -2.566290 431.684875
v 592.362183 -2.566290 179.082123
v 592.362183 -328.970093 179.082123
v 592.362183 -2.566290 -452.424683
v 592.362183 -328.970093 -452.424805
v 592.362183 286.610657 431.684875
v 592.362183 286.610657 557.986389
v 592.362183 286.610657 -452.424805
v 592.362183 286.610657 179.082123
v 592.362183 759.042542 557.986389
v 592.362183 759.042542 431.684875
v 592.362122 323.837524 305.383545
v 592.362122 759.042542 305.383545
v 592.362183 759.042542 179.082123
v 592.362183 759.042542 -73.520615
v 592.362122 759.042542 -326.123413
v 592.362183 759.042542 -452.424805
vt 0.610048 0.003906
vt 0.610048 0.146430
vt 0.554898 0.146430
vt 0.554898 0.003906
vt 0.720347 0.146430
vt 0.720347 0.003906
vt 0.610048 0.272699
vt 0.554898 0.272699
vt 0.996094 0.003906
vt 0.996094 0.146430
vt 0.610048 0.478986
vt 0.554898 0.478986
vt 0.720347 0.272699
vt 0.996094 0.272699
vt 0.665197 0.288954
vt 0.665197 0.478986
vt 0.996094 0.478986
vt 0.720347 0.478986
vt 0.940944 0.484336
vt 0.996094 0.484336
vt 0.996094 0.626860
vt 0.940944 0.626860
vt 0.940944 0.753129
vt 0.996094 0.753129
vt 0.830645 0.626860
vt 0.830645 0.484336
vt 0.996094 0.959416
vt 0.940944 0.959416
vt 0.554898 0.626860
vt 0.554898 0.484336
vt 0.885795 0.769384
vt 0.885795 0.959416
vt 0.554898 0.753129
vt 0.830645 0.753129
vt 0.830645 0.959416
vt 0.720347 0.959416
vt 0.610048 0.959416
vt 0.554898 0.959416
vt 0.549567 0.478987
vt 0.003906 0.478987
vt 0.003906 0.003906
vt 0.549567 0.003906
vt 0.549567 0.959416
vt 0.003906 0.959416
vt 0.003906 0.484336
vt 0.549567 0.484336
vn 0.000000 1.000000 0.000000
vn 0.000000 1.000000 0.000000
vn 0.000000 1.000000 0.000000
vn 0.000000 1.000000 0.000000
vn 0.000000 0.000000 1.000000
vn 0.000000 0.000000 1.000000
vn 0.000000 0.000000 1.000000
vn 0.000000 0.000000 1.000000
vn 1.000000 0.000000 0.000000
vn 1.000000 0.000000 0.000000
vn 1.000000 0.000000 0.000000
vn 1.000000 0.000000 0.000000
vn 1.000000 0.000000 0.000000
vn 1.000000 0.000000 0.000000
vn 1.000000 0.000000 0.000000
vn 1.000000 0.000000 0.000000
vn 1.000000 0.000000 0.000000
vn 1.000000 0.000000 0.000000
vn 1.000000 0.000000 -0.000000
vn 1.000000 0.000000 0.000000
vn 1.000000 0.000000 0.000000
vn 1.000000 0.000000 0.000000
vn 1.000000 0.000000 0.000000
vn 1.000000 0.000000 0.000000
vn 1.000000 0.000000 -0.000000
vn 1.000000 0.000000 0.000000
vn -1.000000 0.000000 0.000000
vn -1.000000 0.000000 0.000000
vn -1.000000 0.000000 0.000000
vn -1.000000 0.000000 0.000000
vn -1.000000 0.000000 0.000000
vn -1.000000 0.000000 0.000000
vn -1.000000 0.000000 0.000000
vn -1.000000 0.000000 0.000000
vn -1.000000 0.000000 0.000000
vn -1.000000 0.000000 0.000000
vn -1.000000 -0.000000 0.000000
vn -1.000000 -0.000000 -0.000000
vn -1.000000 0.000000 0.000000
vn -1.000000 0.000000 0.000000
vn -1.000000 0.000000 -0.000000
vn -1.000000 0.000000 -0.000000
vn -1.000000 -0.000000 -0.000000
vn -1.000000 -0.000000 0.000000
vn -1.000000 -0.000000 0.000000
vn -1.000000 -0.000000 0.000000
s off
g polySurface21
usemtl initialShadingGroup
f 1/39/1 2/40/2 3/41/3 4/42/4
f 5/43/5 6/44/6 7/45/7 8/46/8
s 1
f 9/1/9 10/2/10 11/3/11 12/4/12
f 13/5/13 10/2/10 9/1/9 14/6/14
f 13/5/13 14/6/14 15/9/15 16/10/16
f 10/2/10 17/7/17 18/8/18 11/3/11
f 19/13/19 13/5/13 16/10/16 20/14/20
f 17/7/17 21/11/21 22/12/22 18/8/18
f 23/15/23 24/16/24 21/11/21 17/7/17
f 19/13/19 25/18/25 24/16/24 23/15/23
f 26/17/26 25/18/25 19/13/19 20/14/20
s 2
f 27/19/27 28/20/28 29/21/29 30/22/30
f 30/22/30 31/25/31 32/26/32 27/19/27
f 33/29/33 34/30/34 32/26/32 31/25/31
f 35/23/35 30/22/30 29/21/29 36/24/36
f 37/33/37 33/29/33 31/25/31 38/34/38
f 35/23/35 36/24/36 39/27/39 40/28/40
f 41/31/41 35/23/35 40/28/40 42/32/42
f 38/34/38 41/31/41 42/32/42 43/35/43
f 44/36/44 45/37/45 46/38/46 37/33/37 38/34/38 43/35/43
