# This file uses centimeters as units for non-parametric coordinates.

mtllib walls.mtl
g default
v 624.826782 0.000000 -289.056091
v -624.826782 0.000000 -289.056091
v -624.826782 0.000000 543.020691
v 624.826782 0.000000 543.020691
v 624.826782 759.042542 -282.271118
v -624.826782 759.042542 -282.271118
v -624.826782 -52.470123 -282.271118
v 624.826782 -52.470612 -282.271118
v -592.362183 -52.470360 373.217468
v -592.362183 -52.470360 512.851196
v -592.362183 -52.470360 179.768951
v -592.362183 -52.470360 -289.055969
v -592.362183 286.610657 373.217468
v -592.362183 286.610657 512.851196
v -592.362183 286.610657 179.768951
v -592.362183 286.610657 -289.056091
v -592.362183 759.042542 373.217468
v -592.362183 759.042542 512.851196
v -592.362122 323.837524 276.493256
v -592.362122 759.042542 276.493256
v -592.362183 759.042542 179.768951
v -592.362183 759.042542 -289.056091
v 592.362183 -52.470360 512.851196
v 592.362183 -52.470360 373.217468
v 592.362183 -52.470375 179.768951
v 592.362183 -52.470383 -289.055969
v 592.362183 286.610657 373.217468
v 592.362183 286.610657 512.851196
v 592.362183 286.610657 -289.056152
v 592.362183 286.610657 179.768951
v 592.362183 759.042542 512.851196
v 592.362183 759.042542 373.217468
v 592.362122 323.837524 276.493256
v 592.362122 759.042542 276.493256
v 592.362183 759.042542 179.768951
v 592.362183 759.042542 -289.056152
vt 0.677671 0.398886
vt 0.610543 0.398889
vt 0.770671 0.398882
vt 0.677678 0.561898
vt 0.610550 0.561901
vt 0.996056 0.398873
vt 0.677688 0.789017
vt 0.610560 0.789020
vt 0.770678 0.561894
vt 0.996063 0.561884
vt 0.724179 0.579792
vt 0.724188 0.789015
vt 0.996073 0.789003
vt 0.770687 0.789013
vt 0.996056 0.003906
vt 0.928928 0.003913
vt 0.928944 0.166924
vt 0.996072 0.166918
vt 0.835928 0.003922
vt 0.996094 0.394037
vt 0.928966 0.394043
vt 0.610543 0.003944
vt 0.882446 0.184825
vt 0.882466 0.394048
vt 0.610559 0.166955
vt 0.835944 0.166933
vt 0.835966 0.394052
vt 0.610581 0.394074
vt 0.604685 0.403923
vt 0.003921 0.403945
vt 0.003906 0.003928
vt 0.604671 0.003906
vt 0.604671 0.798903
vt 0.003906 0.798890
vt 0.003915 0.408759
vt 0.604679 0.408772
vn 0.000000 1.000000 0.000000
vn 0.000000 1.000000 0.000000
vn 0.000000 1.000000 0.000000
vn 0.000000 1.000000 0.000000
vn 0.000000 0.000000 1.000000
vn 0.000000 0.000000 1.000000
vn 0.000000 0.000000 1.000000
vn 0.000000 0.000000 1.000000
vn 1.000000 0.000000 0.000000
vn 1.000000 0.000000 0.000000
vn 1.000000 0.000000 0.000000
vn 1.000000 0.000000 0.000000
vn 1.000000 0.000000 -0.000000
vn 1.000000 0.000000 0.000000
vn 1.000000 0.000000 0.000000
vn 1.000000 0.000000 0.000000
vn 1.000000 0.000000 0.000000
vn 1.000000 0.000000 0.000000
vn 1.000000 0.000000 0.000000
vn 1.000000 0.000000 0.000000
vn 1.000000 0.000000 -0.000000
vn 1.000000 0.000000 0.000000
vn -1.000000 0.000000 0.000000
vn -1.000000 0.000000 0.000000
vn -1.000000 0.000000 0.000000
vn -1.000000 0.000000 0.000000
vn -1.000000 0.000000 0.000000
vn -1.000000 0.000000 0.000000
vn -1.000000 0.000000 0.000000
vn -1.000000 0.000000 -0.000000
vn -1.000000 0.000000 0.000000
vn -1.000000 0.000000 0.000000
vn -1.000000 0.000000 0.000000
vn -1.000000 0.000000 0.000000
vn -1.000000 0.000000 -0.000000
vn -1.000000 0.000000 0.000000
s off
g walls
usemtl lambert2SG
f 1/29/1 2/30/2 3/31/3 4/32/4
f 8/36/5 5/33/6 6/34/7 7/35/8
s 1
f 9/1/9 13/4/10 14/5/11 10/2/12
f 15/9/13 11/3/14 12/6/15 16/10/16
f 13/4/10 17/7/17 18/8/18 14/5/11
f 19/11/19 20/12/20 17/7/17 13/4/10
f 15/9/13 21/14/21 20/12/20 19/11/19
f 22/13/22 21/14/21 15/9/13 16/10/16
s 3
f 27/17/23 24/16/24 23/15/25 28/18/26
f 29/25/27 26/22/28 25/19/29 30/26/30
f 27/17/23 28/18/26 31/20/31 32/21/32
f 33/23/33 27/17/23 32/21/32 34/24/34
f 30/26/30 33/23/33 34/24/34 35/27/35
f 35/27/35 36/28/36 29/25/27 30/26/30
