# This file uses centimeters as units for non-parametric coordinates.

mtllib woodBox_low.mtl
g default
v -48.441853 13.335151 -48.441864
v -48.441853 13.335151 48.441833
v -48.441853 25.785143 48.441833
v -48.441853 25.785143 -48.441864
v 48.441853 25.785143 -48.441864
v 48.441853 13.335151 -48.441864
v 48.441853 13.335151 48.441833
v 48.441853 25.785143 48.441833
v -50.870708 13.335151 50.870697
v -50.870708 13.335151 -50.870697
v -50.870708 25.785143 50.870697
v -50.870708 25.785143 -50.870697
v 50.870708 25.785143 -50.870697
v 50.870708 13.335151 -50.870697
v 50.870708 13.335151 50.870697
v 50.870708 25.785143 50.870697
v -48.441853 79.413078 -48.441864
v -48.441853 79.413078 48.441833
v -48.441853 91.863068 48.441833
v -48.441853 91.863068 -48.441864
v 48.441853 91.863068 -48.441864
v 48.441853 79.413078 -48.441864
v 48.441853 79.413078 48.441833
v 48.441853 91.863068 48.441833
v -50.870708 79.413078 50.870697
v -50.870708 79.413078 -50.870697
v -50.870708 91.863068 50.870697
v -50.870708 91.863068 -50.870697
v 50.870708 91.863068 -50.870697
v 50.870708 79.413078 -50.870697
v 50.870708 79.413078 50.870697
v 50.870708 91.863068 50.870697
v -48.441853 0.000000 48.441833
v 48.441853 0.000000 48.441833
v -48.441853 105.198242 48.441833
v 48.441853 105.198242 48.441833
v -48.441853 105.198242 -48.441864
v 48.441853 105.198242 -48.441864
v -48.441853 0.000000 -48.441864
v 48.441853 0.000000 -48.441864
v -41.192566 105.198242 41.192566
v 41.192566 105.198242 41.192566
v 41.192566 105.198242 -41.192535
v -41.192566 105.198242 -41.192535
v -41.192566 75.929245 41.192566
v 41.192566 75.929245 41.192566
v 41.192566 75.929245 -41.192535
v -41.192566 75.929245 -41.192535
vt 0.255489 0.930935
vt 0.497096 0.930935
vt 0.497096 0.964378
vt 0.255489 0.964378
vt 0.738749 0.930935
vt 0.990213 0.930935
vt 0.990213 0.964378
vt 0.738749 0.964378
vt 0.255489 0.925103
vt 0.255489 0.891662
vt 0.497096 0.891662
vt 0.497096 0.925103
vt 0.738749 0.925103
vt 0.738749 0.891662
vt 0.990213 0.891662
vt 0.003906 0.925103
vt 0.255486 0.930933
vt 0.497095 0.930933
vt 0.497095 0.964376
vt 0.255486 0.964376
vt 0.738749 0.930933
vt 0.990211 0.930933
vt 0.990211 0.964376
vt 0.738749 0.964376
vt 0.255486 0.925101
vt 0.255486 0.891660
vt 0.497095 0.891660
vt 0.497095 0.925101
vt 0.738749 0.925101
vt 0.738749 0.891660
vt 0.990211 0.891660
vt 0.990211 0.925101
vt 0.748027 0.251866
vt 0.996056 0.251831
vt 0.996094 0.521146
vt 0.748065 0.521180
vt 0.251970 0.251935
vt 0.499998 0.251900
vt 0.500036 0.521215
vt 0.252007 0.521250
vt 0.709525 0.526038
vt 0.920437 0.526038
vt 0.920437 0.600969
vt 0.709525 0.600969
vt 0.920437 0.886811
vt 0.709525 0.886811
vt 0.709525 0.811880
vt 0.920437 0.811880
vt 0.497096 0.970214
vt 0.255489 0.970214
vt 0.990213 0.970214
vt 0.738749 0.970214
vt 0.003909 0.925101
vt 0.003909 0.930933
vt 0.497095 0.970216
vt 0.255486 0.970216
vt 0.990211 0.970216
vt 0.738749 0.970216
vt 0.003941 0.251970
vt 0.003906 0.003941
vt 0.251935 0.003906
vt 0.252042 0.769278
vt 0.004013 0.769313
vt 0.022569 0.750752
vt 0.233481 0.750722
vt 0.003978 0.521284
vt 0.022540 0.539840
vt 0.233451 0.539811
vt 0.003906 0.891662
vt 0.003909 0.891660
vt 0.634595 0.811880
vt 0.634595 0.600969
vt 0.995367 0.600969
vt 0.995367 0.811880
vt 0.003909 0.964376
vt 0.003909 0.970216
vt 0.003906 0.964378
vt 0.003906 0.930935
vt 0.990213 0.925103
vt 0.003906 0.970214
vn -0.700782 -0.133450 -0.700782
vn -0.700782 -0.133451 0.700782
vn -0.700782 0.133451 0.700782
vn -0.700782 0.133450 -0.700782
vn 0.700782 0.133450 -0.700782
vn 0.700782 -0.133450 -0.700782
vn 0.700782 -0.133451 0.700782
vn 0.700782 0.133451 0.700782
vn 0.650955 -0.390532 0.650955
vn 0.650955 0.390532 0.650955
vn 0.650954 0.390534 -0.650954
vn 0.650954 -0.390534 -0.650954
vn -0.650955 -0.390532 0.650955
vn -0.650955 0.390532 0.650955
vn -0.650954 -0.390534 -0.650954
vn -0.650954 0.390534 -0.650954
vn -0.700782 -0.133450 -0.700782
vn -0.700782 -0.133451 0.700782
vn -0.700782 0.133451 0.700782
vn -0.700782 0.133450 -0.700782
vn 0.700782 0.133450 -0.700782
vn 0.700782 -0.133450 -0.700782
vn 0.700782 -0.133451 0.700782
vn 0.700782 0.133451 0.700782
vn 0.650955 -0.390532 0.650955
vn 0.650955 0.390532 0.650955
vn 0.650955 0.390534 -0.650954
vn 0.650955 -0.390534 -0.650954
vn -0.650955 -0.390532 0.650955
vn -0.650955 0.390532 0.650955
vn -0.650955 -0.390534 -0.650954
vn -0.650955 0.390534 -0.650954
vn -0.706389 0.045035 0.706389
vn -0.592539 -0.545706 0.592539
vn 0.592539 -0.545706 0.592539
vn 0.706389 0.045035 0.706389
vn 0.317455 0.893558 -0.317455
vn -0.317455 0.893558 -0.317455
vn -0.317455 0.893558 0.317455
vn 0.317455 0.893558 0.317455
vn 0.592539 -0.545706 -0.592539
vn -0.592539 -0.545706 -0.592539
vn -0.706389 0.045036 -0.706389
vn 0.706389 0.045036 -0.706389
vn -0.613886 0.496274 -0.613886
vn 0.613886 0.496274 -0.613886
vn -0.613885 0.496276 0.613885
vn 0.613885 0.496276 0.613885
s 1
g box_low
usemtl lambert2SG
f 10/1/1 9/2/2 11/3/3 12/4/4
f 12/4/4 13/77/5 14/78/6 10/1/1
f 15/5/7 14/6/6 13/7/5 16/8/8
f 9/2/2 15/5/7 16/8/8 11/3/3
f 1/9/9 4/10/10 3/11/11 2/12/12
f 4/10/10 1/9/9 6/16/13 5/69/14
f 7/13/15 8/14/16 5/15/14 6/79/13
f 2/12/12 3/11/11 8/14/16 7/13/15
f 1/9/9 2/12/12 9/2/2 10/1/1
f 3/49/11 4/50/10 12/4/4 11/3/3
f 4/50/10 5/80/14 13/77/5 12/4/4
f 6/16/13 1/9/9 10/1/1 14/78/6
f 7/13/15 6/79/13 14/6/6 15/5/7
f 5/51/14 8/52/16 16/8/8 13/7/5
f 2/12/12 7/13/15 15/5/7 9/2/2
f 8/52/16 3/49/11 11/3/3 16/8/8
s 3
f 26/17/17 25/18/18 27/19/19 28/20/20
f 28/20/20 29/75/21 30/54/22 26/17/17
f 31/21/23 30/22/22 29/23/21 32/24/24
f 25/18/18 31/21/23 32/24/24 27/19/19
f 17/25/25 20/26/26 19/27/27 18/28/28
f 20/26/26 17/25/25 22/53/29 21/70/30
f 23/29/31 24/30/32 21/31/30 22/32/29
f 18/28/28 19/27/27 24/30/32 23/29/31
f 17/25/25 18/28/28 25/18/18 26/17/17
f 19/55/27 20/56/26 28/20/20 27/19/19
f 20/56/26 21/76/30 29/75/21 28/20/20
f 22/53/29 17/25/25 26/17/17 30/54/22
f 23/29/31 22/32/29 30/22/22 31/21/23
f 21/57/30 24/58/32 32/24/24 29/23/21
f 18/28/28 23/29/31 31/21/23 25/18/18
f 24/58/32 19/55/27 27/19/19 32/24/24
s 5
f 35/39/33 33/38/34 34/33/35 36/36/36
f 45/47/37 46/44/38 47/43/39 48/48/40
f 40/59/41 39/37/42 37/40/43 38/66/44
f 39/37/42 40/59/41 34/60/35 33/61/34
f 34/33/35 40/34/41 38/35/44 36/36/36
f 39/37/42 33/38/34 35/39/33 37/40/43
f 35/62/33 36/63/36 42/64/45 41/65/46
f 36/63/36 38/66/44 43/67/47 42/64/45
f 38/66/44 37/40/43 44/68/48 43/67/47
f 37/40/43 35/62/33 41/65/46 44/68/48
f 41/71/46 42/72/45 46/44/38 45/47/37
f 42/41/45 43/42/47 47/43/39 46/44/38
f 43/73/47 44/74/48 48/48/40 47/43/39
f 44/45/48 41/46/46 45/47/37 48/48/40
