# This file uses centimeters as units for non-parametric coordinates.

mtllib woodPiece.mtl
g default
v 20.086590 20.086615 -70.760923
v -0.000023 28.406760 -70.760923
v -20.086635 20.086615 -70.760923
v -28.406746 0.000003 -70.760923
v -20.086635 -20.086610 -70.760923
v -0.000023 -28.406760 -70.760923
v 20.086590 -20.086615 -70.760923
v 28.406746 0.000003 -70.760923
v 20.086590 20.086615 70.760923
v -0.000023 28.406760 70.760923
v -20.086635 20.086615 70.760923
v -28.406746 0.000003 70.760923
v -20.086635 -20.086610 70.760923
v -0.000023 -28.406760 70.760923
v 20.086590 -20.086615 70.760923
v 28.406746 0.000003 70.760923
v -0.000023 0.000003 -70.760923
v -0.000023 0.000003 70.760923
vt 0.004005 0.003906
vt 0.114671 0.003921
vt 0.114573 0.724278
vt 0.003906 0.724263
vt 0.225337 0.003937
vt 0.225239 0.724293
vt 0.336004 0.003952
vt 0.335905 0.724308
vt 0.446670 0.003967
vt 0.446571 0.724323
vt 0.557336 0.003982
vt 0.557238 0.724338
vt 0.668002 0.003997
vt 0.667904 0.724354
vt 0.778669 0.004012
vt 0.778570 0.724369
vt 0.889335 0.004027
vt 0.889237 0.724384
vt 0.271078 0.807175
vt 0.271078 0.917841
vt 0.137492 0.862508
vt 0.192825 0.728922
vt 0.082159 0.728922
vt 0.003906 0.807175
vt 0.003906 0.917841
vt 0.082159 0.996094
vt 0.192826 0.996094
vt 1.192825 0.996094
vt 1.082159 0.996094
vt 1.137492 0.862508
vt 1.003906 0.917841
vt 1.003906 0.807175
vt 1.082159 0.728922
vt 1.192826 0.728922
vt 1.271078 0.807175
vt 1.271078 0.917841
vn 0.382683 0.923880 0.000000
vn 0.382683 0.923880 0.000000
vn 0.382683 0.923880 0.000000
vn 0.382683 0.923880 0.000000
vn -0.382683 0.923880 0.000000
vn -0.382683 0.923880 0.000000
vn -0.382683 0.923880 0.000000
vn -0.382683 0.923880 0.000000
vn -0.923880 0.382682 0.000000
vn -0.923880 0.382682 0.000000
vn -0.923880 0.382682 0.000000
vn -0.923880 0.382682 0.000000
vn -0.923880 -0.382682 0.000000
vn -0.923880 -0.382682 0.000000
vn -0.923880 -0.382682 0.000000
vn -0.923880 -0.382682 0.000000
vn -0.382683 -0.923880 0.000000
vn -0.382683 -0.923880 0.000000
vn -0.382683 -0.923880 0.000000
vn -0.382683 -0.923880 0.000000
vn 0.382683 -0.923880 0.000000
vn 0.382683 -0.923880 0.000000
vn 0.382683 -0.923880 0.000000
vn 0.382683 -0.923880 0.000000
vn 0.923879 -0.382684 0.000000
vn 0.923879 -0.382684 0.000000
vn 0.923879 -0.382684 0.000000
vn 0.923879 -0.382684 0.000000
vn 0.923879 0.382684 0.000000
vn 0.923879 0.382684 0.000000
vn 0.923879 0.382684 0.000000
vn 0.923879 0.382684 0.000000
vn 0.000000 0.000000 -1.000000
vn 0.000000 0.000000 -1.000000
vn 0.000000 0.000000 -1.000000
vn 0.000000 0.000000 -1.000000
vn 0.000000 0.000000 -1.000000
vn 0.000000 0.000000 -1.000000
vn 0.000000 0.000000 -1.000000
vn 0.000000 0.000000 -1.000000
vn 0.000000 0.000000 -1.000000
vn 0.000000 0.000000 1.000000
vn 0.000000 0.000000 1.000000
vn 0.000000 0.000000 1.000000
vn 0.000000 0.000000 1.000000
vn 0.000000 0.000000 1.000000
vn 0.000000 0.000000 1.000000
vn 0.000000 0.000000 1.000000
vn 0.000000 0.000000 1.000000
vn 0.000000 0.000000 1.000000
s off
g polySurface28 pCylinder17
usemtl lambert2SG
f 1/1/1 2/2/2 10/3/3 9/4/4
f 2/2/5 3/5/6 11/6/7 10/3/8
f 3/5/9 4/7/10 12/8/11 11/6/12
f 4/7/13 5/9/14 13/10/15 12/8/16
f 5/9/17 6/11/18 14/12/19 13/10/20
f 6/11/21 7/13/22 15/14/23 14/12/24
f 7/13/25 8/15/26 16/16/27 15/14/28
f 8/15/29 1/17/30 9/18/31 16/16/32
s 1
f 2/19/33 1/20/34 17/21/35
f 3/22/36 2/19/33 17/21/35
f 4/23/37 3/22/36 17/21/35
f 5/24/38 4/23/37 17/21/35
f 6/25/39 5/24/38 17/21/35
f 7/26/40 6/25/39 17/21/35
f 8/27/41 7/26/40 17/21/35
f 1/20/34 8/27/41 17/21/35
s 2
f 9/28/42 10/29/43 18/30/44
f 10/29/43 11/31/45 18/30/44
f 11/31/45 12/32/46 18/30/44
f 12/32/46 13/33/47 18/30/44
f 13/33/47 14/34/48 18/30/44
f 14/34/48 15/35/49 18/30/44
f 15/35/49 16/36/50 18/30/44
f 16/36/50 9/28/42 18/30/44
