# This file uses centimeters as units for non-parametric coordinates.

mtllib woodBox_low.mtl
g default
v -48.441853 13.335151 -48.441864
v -48.441853 13.335151 48.441833
v -48.441853 25.785143 48.441833
v -48.441853 25.785143 -48.441864
v 48.441853 25.785143 -48.441864
v 48.441853 13.335151 -48.441864
v 48.441853 13.335151 48.441833
v 48.441853 25.785143 48.441833
v -50.870708 13.335151 50.870697
v -50.870708 13.335151 -50.870697
v -50.870708 25.785143 50.870697
v -50.870708 25.785143 -50.870697
v 50.870708 25.785143 -50.870697
v 50.870708 13.335151 -50.870697
v 50.870708 13.335151 50.870697
v 50.870708 25.785143 50.870697
v -48.441853 79.413078 -48.441864
v -48.441853 79.413078 48.441833
v -48.441853 91.863068 48.441833
v -48.441853 91.863068 -48.441864
v 48.441853 91.863068 -48.441864
v 48.441853 79.413078 -48.441864
v 48.441853 79.413078 48.441833
v 48.441853 91.863068 48.441833
v -50.870708 79.413078 50.870697
v -50.870708 79.413078 -50.870697
v -50.870708 91.863068 50.870697
v -50.870708 91.863068 -50.870697
v 50.870708 91.863068 -50.870697
v 50.870708 79.413078 -50.870697
v 50.870708 79.413078 50.870697
v 50.870708 91.863068 50.870697
v -48.441853 0.000000 48.441833
v 48.441853 0.000000 48.441833
v -48.441853 105.198242 48.441833
v 48.441853 105.198242 48.441833
v -48.441853 105.198242 -48.441864
v 48.441853 105.198242 -48.441864
v -48.441853 0.000000 -48.441864
v 48.441853 0.000000 -48.441864
v -41.192566 105.198242 41.192566
v 41.192566 105.198242 41.192566
v 41.192566 105.198242 -41.192535
v -41.192566 105.198242 -41.192535
v -41.192566 75.929245 41.192566
v 41.192566 75.929245 41.192566
v 41.192566 75.929245 -41.192535
v -41.192566 75.929245 -41.192535
v -24.153221 35.829712 48.441864
v 24.153221 35.829712 48.441864
v 24.153221 69.368515 48.441864
v -24.153221 69.368515 48.441864
v 24.003090 35.936951 48.764771
v -24.003090 35.936951 48.764771
v 24.003090 69.261276 48.764771
v -24.003090 69.261276 48.764771
vt 0.241534 0.879945
vt 0.469749 0.879945
vt 0.469749 0.911537
vt 0.241534 0.911537
vt 0.697987 0.879946
vt 0.935505 0.879945
vt 0.935505 0.911537
vt 0.697987 0.911537
vt 0.241534 0.874467
vt 0.241534 0.842884
vt 0.469749 0.842884
vt 0.469749 0.874467
vt 0.697987 0.874467
vt 0.697987 0.842884
vt 0.935505 0.842884
vt 0.003906 0.874467
vt 0.241532 0.958970
vt 0.469746 0.958970
vt 0.469746 0.990561
vt 0.241532 0.990561
vt 0.697982 0.958970
vt 0.935499 0.958970
vt 0.935499 0.990561
vt 0.697982 0.990561
vt 0.241532 0.953491
vt 0.241532 0.921907
vt 0.469746 0.921907
vt 0.469746 0.953491
vt 0.697982 0.953491
vt 0.697982 0.921907
vt 0.935499 0.921907
vt 0.935499 0.953491
vt 0.706713 0.238099
vt 0.940971 0.238066
vt 0.941007 0.492428
vt 0.706748 0.492461
vt 0.238197 0.238164
vt 0.472455 0.238131
vt 0.472491 0.492493
vt 0.238232 0.492526
vt 0.669676 0.497304
vt 0.868878 0.497304
vt 0.868878 0.568075
vt 0.669676 0.568075
vt 0.868878 0.838047
vt 0.669676 0.838047
vt 0.669676 0.767276
vt 0.868878 0.767276
vt 0.469749 0.917070
vt 0.241534 0.917070
vt 0.935505 0.917070
vt 0.697987 0.917070
vt 0.003906 0.953491
vt 0.003906 0.958970
vt 0.469746 0.996094
vt 0.241532 0.996094
vt 0.935499 0.996094
vt 0.697982 0.996094
vt 0.003939 0.238197
vt 0.003906 0.003939
vt 0.238164 0.003906
vt 0.238265 0.726784
vt 0.004007 0.726817
vt 0.021533 0.709286
vt 0.220735 0.709258
vt 0.003975 0.492559
vt 0.021505 0.510085
vt 0.220707 0.510057
vt 0.003906 0.842884
vt 0.003906 0.921907
vt 0.598906 0.767276
vt 0.598906 0.568075
vt 0.939648 0.568075
vt 0.939648 0.767276
vt 0.003906 0.990561
vt 0.003906 0.996094
vt 0.003906 0.911537
vt 0.003906 0.879945
vt 0.935505 0.874467
vt 0.003906 0.917070
vt 0.246646 0.004729
vt 0.362722 0.004742
vt 0.362713 0.085318
vt 0.246637 0.085305
vt 0.246283 0.003906
vt 0.363085 0.003919
vt 0.363583 0.004483
vt 0.363574 0.085577
vt 0.363076 0.086141
vt 0.246274 0.086128
vt 0.245776 0.085564
vt 0.245785 0.004470
vn -1.000000 0.000000 0.000000
vn -1.000000 0.000000 0.000000
vn -1.000000 0.000000 0.000000
vn -1.000000 0.000000 0.000000
vn 0.000000 0.000000 -1.000000
vn 0.000000 0.000000 -1.000000
vn 0.000000 0.000000 -1.000000
vn 0.000000 0.000000 -1.000000
vn 1.000000 0.000000 0.000000
vn 1.000000 0.000000 0.000000
vn 1.000000 0.000000 0.000000
vn 1.000000 0.000000 0.000000
vn 0.000000 0.000000 1.000000
vn 0.000000 0.000000 1.000000
vn 0.000000 0.000000 1.000000
vn 0.000000 0.000000 1.000000
vn 1.000000 0.000000 0.000000
vn 1.000000 0.000000 0.000000
vn 1.000000 0.000000 0.000000
vn 1.000000 0.000000 0.000000
vn 0.000000 0.000000 1.000000
vn 0.000000 0.000000 1.000000
vn 0.000000 0.000000 1.000000
vn 0.000000 0.000000 1.000000
vn -1.000000 0.000000 0.000000
vn -1.000000 0.000000 0.000000
vn -1.000000 0.000000 0.000000
vn -1.000000 0.000000 0.000000
vn 0.000000 0.000000 -1.000000
vn 0.000000 0.000000 -1.000000
vn 0.000000 0.000000 -1.000000
vn 0.000000 0.000000 -1.000000
vn 0.000000 -1.000000 0.000000
vn 0.000000 -1.000000 0.000000
vn 0.000000 -1.000000 0.000000
vn 0.000000 -1.000000 0.000000
vn 0.000000 1.000000 -0.000000
vn 0.000000 1.000000 0.000000
vn 0.000000 1.000000 0.000000
vn 0.000000 1.000000 -0.000000
vn 0.000000 1.000000 0.000000
vn 0.000000 1.000000 0.000000
vn 0.000000 -1.000000 0.000000
vn 0.000000 -1.000000 0.000000
vn 0.000000 -1.000000 0.000000
vn 0.000000 -1.000000 0.000000
vn 0.000000 1.000000 -0.000000
vn 0.000000 1.000000 -0.000000
vn -1.000000 0.000000 0.000000
vn -1.000000 0.000000 0.000000
vn -1.000000 0.000000 0.000000
vn -1.000000 0.000000 0.000000
vn 0.000000 0.000000 -1.000000
vn 0.000000 0.000000 -1.000000
vn 0.000000 0.000000 -1.000000
vn 0.000000 0.000000 -1.000000
vn 1.000000 0.000000 0.000000
vn 1.000000 0.000000 0.000000
vn 1.000000 0.000000 0.000000
vn 1.000000 0.000000 0.000000
vn 0.000000 0.000000 1.000000
vn 0.000000 0.000000 1.000000
vn 0.000000 0.000000 1.000000
vn 0.000000 0.000000 1.000000
vn 1.000000 0.000000 0.000000
vn 1.000000 0.000000 0.000000
vn 1.000000 0.000000 0.000000
vn 1.000000 0.000000 0.000000
vn 0.000000 0.000000 1.000000
vn 0.000000 0.000000 1.000000
vn 0.000000 0.000000 1.000000
vn 0.000000 0.000000 1.000000
vn -1.000000 0.000000 0.000000
vn -1.000000 0.000000 0.000000
vn -1.000000 0.000000 0.000000
vn -1.000000 0.000000 0.000000
vn 0.000000 0.000000 -1.000000
vn 0.000000 0.000000 -1.000000
vn 0.000000 0.000000 -1.000000
vn 0.000000 0.000000 -1.000000
vn 0.000000 -1.000000 0.000000
vn 0.000000 -1.000000 -0.000000
vn 0.000000 -1.000000 -0.000000
vn 0.000000 -1.000000 0.000000
vn 0.000000 1.000000 0.000000
vn 0.000000 1.000000 -0.000000
vn 0.000000 1.000000 -0.000000
vn 0.000000 1.000000 0.000000
vn 0.000000 1.000000 -0.000000
vn 0.000000 1.000000 -0.000000
vn 0.000000 -1.000000 0.000000
vn 0.000000 -1.000000 0.000000
vn 0.000000 -1.000000 -0.000000
vn 0.000000 -1.000000 -0.000000
vn 0.000000 1.000000 0.000000
vn 0.000000 1.000000 0.000000
vn 0.000000 0.000000 1.000000
vn 0.000000 0.000000 1.000000
vn 0.000000 0.000000 1.000000
vn 0.000000 0.000000 1.000000
vn 0.000000 1.000000 0.000000
vn 0.000000 1.000000 0.000000
vn 0.000000 1.000000 0.000000
vn 0.000000 1.000000 0.000000
vn 0.000000 0.000000 -1.000000
vn 0.000000 0.000000 -1.000000
vn 0.000000 0.000000 -1.000000
vn 0.000000 0.000000 -1.000000
vn 0.000000 -1.000000 0.000000
vn 0.000000 -1.000000 0.000000
vn 0.000000 -1.000000 0.000000
vn 0.000000 -1.000000 0.000000
vn 1.000000 0.000000 0.000000
vn 1.000000 0.000000 0.000000
vn 1.000000 0.000000 0.000000
vn 1.000000 0.000000 0.000000
vn -1.000000 0.000000 0.000000
vn -1.000000 0.000000 0.000000
vn -1.000000 0.000000 0.000000
vn -1.000000 0.000000 0.000000
vn 0.000000 1.000000 0.000001
vn 0.000000 1.000000 0.000001
vn 0.000000 1.000000 0.000001
vn 0.000000 1.000000 0.000001
vn 0.000000 1.000000 0.000000
vn 0.000000 1.000000 0.000000
vn 0.000000 1.000000 0.000000
vn 0.000000 1.000000 0.000000
vn 0.000000 1.000000 -0.000001
vn 0.000000 1.000000 -0.000001
vn 0.000000 1.000000 -0.000001
vn 0.000000 1.000000 -0.000001
vn 0.000000 1.000000 0.000000
vn 0.000000 1.000000 0.000000
vn 0.000000 1.000000 0.000000
vn 0.000000 1.000000 0.000000
vn 0.000000 0.000000 -1.000000
vn 0.000000 0.000000 -1.000000
vn 0.000000 0.000000 -1.000000
vn 0.000000 0.000000 -1.000000
vn -1.000000 0.000000 0.000000
vn -1.000000 0.000000 0.000000
vn -1.000000 0.000000 0.000000
vn -1.000000 0.000000 0.000000
vn 0.000000 0.000000 1.000000
vn 0.000000 0.000000 1.000000
vn 0.000000 0.000000 1.000000
vn 0.000000 0.000000 1.000000
vn 1.000000 0.000000 0.000000
vn 1.000000 0.000000 0.000000
vn 1.000000 0.000000 0.000000
vn 1.000000 0.000000 0.000000
vn 0.000000 0.000000 1.000000
vn 0.000000 0.000000 1.000000
vn 0.000000 0.000000 1.000000
vn 0.000000 0.000000 1.000000
vn 0.000000 -0.949033 0.315176
vn 0.000000 -0.949033 0.315176
vn 0.000000 -0.949033 0.315176
vn 0.000000 -0.949033 0.315176
vn 0.906790 0.000000 0.421582
vn 0.906790 0.000000 0.421582
vn 0.906790 0.000000 0.421582
vn 0.906790 0.000000 0.421582
vn 0.000000 0.949032 0.315178
vn 0.000000 0.949032 0.315178
vn 0.000000 0.949033 0.315178
vn 0.000000 0.949033 0.315178
vn -0.906790 0.000000 0.421582
vn -0.906790 0.000000 0.421582
vn -0.906790 0.000000 0.421582
vn -0.906790 0.000000 0.421582
s off
g polySurface18
usemtl lambert2SG
f 10/1/1 9/2/2 11/3/3 12/4/4
f 12/4/5 13/77/6 14/78/7 10/1/8
f 15/5/9 14/6/10 13/7/11 16/8/12
f 9/2/13 15/5/14 16/8/15 11/3/16
f 1/9/17 4/10/18 3/11/19 2/12/20
f 4/10/21 1/9/22 6/16/23 5/69/24
f 7/13/25 8/14/26 5/15/27 6/79/28
f 2/12/29 3/11/30 8/14/31 7/13/32
s 1
f 1/9/33 2/12/34 9/2/35 10/1/36
s 2
f 3/49/37 4/50/38 12/4/39 11/3/40
f 4/50/38 5/80/41 13/77/42 12/4/39
s 1
f 6/16/43 1/9/33 10/1/36 14/78/44
f 7/13/45 6/79/43 14/6/44 15/5/46
s 2
f 5/51/41 8/52/47 16/8/48 13/7/42
s 1
f 2/12/34 7/13/45 15/5/46 9/2/35
s 2
f 8/52/47 3/49/37 11/3/40 16/8/48
s off
f 26/17/49 25/18/50 27/19/51 28/20/52
f 28/20/53 29/75/54 30/54/55 26/17/56
f 31/21/57 30/22/58 29/23/59 32/24/60
f 25/18/61 31/21/62 32/24/63 27/19/64
f 17/25/65 20/26/66 19/27/67 18/28/68
f 20/26/69 17/25/70 22/53/71 21/70/72
f 23/29/73 24/30/74 21/31/75 22/32/76
f 18/28/77 19/27/78 24/30/79 23/29/80
s 3
f 17/25/81 18/28/82 25/18/83 26/17/84
s 4
f 19/55/85 20/56/86 28/20/87 27/19/88
f 20/56/86 21/76/89 29/75/90 28/20/87
s 3
f 22/53/91 17/25/81 26/17/84 30/54/92
f 23/29/93 22/32/91 30/22/92 31/21/94
s 4
f 21/57/89 24/58/95 32/24/96 29/23/90
s 3
f 18/28/82 23/29/93 31/21/94 25/18/83
s 4
f 24/58/95 19/55/85 27/19/88 32/24/96
s off
f 35/39/97 33/38/98 34/33/99 36/36/100
f 45/47/101 46/44/102 47/43/103 48/48/104
f 40/59/105 39/37/106 37/40/107 38/66/108
f 39/37/109 40/59/110 34/60/111 33/61/112
f 34/33/113 40/34/114 38/35/115 36/36/116
f 39/37/117 33/38/118 35/39/119 37/40/120
f 35/62/121 36/63/122 42/64/123 41/65/124
f 36/63/125 38/66/126 43/67/127 42/64/128
f 38/66/129 37/40/130 44/68/131 43/67/132
f 37/40/133 35/62/134 41/65/135 44/68/136
f 41/71/137 42/72/138 46/44/139 45/47/140
f 42/41/141 43/42/142 47/43/143 46/44/144
f 43/73/145 44/74/146 48/48/147 47/43/148
f 44/45/149 41/46/150 45/47/151 48/48/152
usemtl initialShadingGroup
f 54/81/153 53/82/154 55/83/155 56/84/156
f 49/85/157 50/86/158 53/82/159 54/81/160
f 50/87/161 51/88/162 55/83/163 53/82/164
f 51/89/165 52/90/166 56/84/167 55/83/168
f 52/91/169 49/92/170 54/81/171 56/84/172
